<svg xmlns="http://www.w3.org/2000/svg" id="Capa_2" data-name="Capa 2" viewBox="0 0 176.9 56.8"><defs><style>      .cls-1 {        fill: #f6f6f6;        stroke-width: 0px;      }    </style></defs><g id="Capa_1-2" data-name="Capa 1-2"><g><g><path class="cls-1" d="M20.5,11.8c2.9,3,2.8,6,0,9.1-3.8,4.2-7.7,8.4-11.4,12.7-3.1,3.5-3.7,7.5-1.6,11.6,1.9,3.8,5.2,5.7,9.5,5.6,5.1-.1,9.6-4.6,9.8-9.7,0-1.7,0-3.5,0-5.2.1-2.5,2-5,4.3-5.5.8-.2,1.8-.4,1.8.9,0,5.1.6,10.2-1.2,15.2-2.4,6.7-9.3,11-16.5,10.4-7.4-.7-13.5-6.2-14.7-13.3-.9-5.3.4-9.8,3.9-13.8,5.3-6,10.6-11.9,16.1-17.9Z"></path><path class="cls-1" d="M12.6,45.2c-2.6-2.9-2.7-6.1-.2-8.8,4.1-4.5,8.2-9,12.2-13.7,3-3.5,3.1-8.2.6-12-2.3-3.5-6.8-5.2-11.1-4.2-4,.9-7.1,4.5-7.5,9-.2,1.9-.1,3.8-.3,5.6-.3,3.5-2.4,5.5-6,5.6.1-5.2-.8-10.5,1-15.6C4.1,2.4,12.8-1.3,20,.4c12.6,3.1,17,17.7,8.3,27.3-5.2,5.8-10.4,11.6-15.7,17.5Z"></path></g><g><path class="cls-1" d="M52.4,41.6c-1.5,0-2.9-.3-3.9-.8-1.1-.5-1.9-1.3-2.4-2.4-.6-1-.8-2.3-.8-3.8v-1.5h3.9v1.3c0,1.1.3,1.9.9,2.5s1.4.9,2.5.9,1.8-.3,2.4-.9c.6-.6.8-1.4.8-2.5v-2.6c0-.8-.2-1.5-.6-1.9-.4-.5-.9-.9-1.6-1.3-.6-.4-1.3-.7-2.1-1s-1.5-.7-2.2-1.1-1.4-.9-2-1.4c-.6-.6-1.1-1.3-1.5-2.1-.4-.8-.5-1.9-.5-3.1v-1.7c0-2.2.6-3.9,1.8-5.1s3-1.8,5.3-1.8,4,.6,5.2,1.8,1.8,2.9,1.8,5.1v1.5h-3.9v-1.4c0-1.1-.3-1.9-.8-2.5-.5-.6-1.3-.9-2.3-.9s-1.9.3-2.5.8-.8,1.3-.8,2.3v1.9c0,.9.2,1.6.7,2.1.4.5,1,1,1.7,1.3.7.4,1.4.7,2.2,1,.7.3,1.4.6,2.1,1s1.3.8,1.9,1.3,1,1.2,1.4,2c.3.8.5,1.9.5,3.1v2.7c0,2.2-.6,4-1.8,5.2s-3,1.8-5.3,1.8h0Z"></path><path class="cls-1" d="M67.4,20.2v15.4c0,.8.2,1.3.6,1.7s1,.6,1.8.6,1.4-.2,1.8-.6.6-1,.6-1.8l.3,2.6c-.4,1.2-.9,2.1-1.6,2.7s-1.6.9-2.6.9c-1.6,0-2.7-.5-3.5-1.5-.8-1-1.2-2.5-1.2-4.4v-15.5h3.9,0ZM72.2,41.3v-21.1h3.9v21.1h-3.9Z"></path><path class="cls-1" d="M80.5,15.8v-3.9h3.9v3.9h-3.9ZM80.5,41.3v-21.1h3.9v21.1h-3.9Z"></path><path class="cls-1" d="M87.2,23.8v-3.7h9.1v3.7h-9.1ZM94.3,41.4c-1.8,0-3-.5-3.8-1.4s-1.2-2.3-1.2-4.2V14h3.9v21.8c0,.6.1,1.1.4,1.4.3.3.7.5,1.2.5h1.6v3.7h-2Z"></path><path class="cls-1" d="M105.8,41.6c-2,0-3.6-.6-4.7-1.8s-1.7-2.9-1.7-5.2v-7.4c0-2.4.6-4.2,1.7-5.5s2.6-1.9,4.6-1.9,3.6.6,4.7,1.8,1.7,2.9,1.7,5.1v5.6h-9.9v-3.2h6.2v-2.3c0-1.1-.2-2-.7-2.5-.4-.6-1.1-.9-1.9-.9s-1.4.3-1.9,1-.7,1.5-.7,2.7v7.7c0,1,.2,1.8.7,2.4.5.6,1.2.9,2,.9s1.4-.2,1.9-.6.7-1,.7-1.8h0c0-.1,3.7-.1,3.7-.1h0c0,2.1-.5,3.6-1.6,4.6s-2.6,1.6-4.6,1.6h0Z"></path><path class="cls-1" d="M115.9,41.3V11.7h3.9v29.6h-3.9ZM117.9,41.3v-3.7h10.2v3.7s-10.2,0-10.2,0Z"></path><path class="cls-1" d="M136.3,41.6c-1.7,0-3-.5-3.9-1.5-.9-1-1.3-2.5-1.3-4.5s.6-4.1,1.6-5.3,2.7-1.8,4.9-1.8h2.7l.3,3.5h-3c-.9,0-1.7.3-2.1.9-.5.6-.7,1.5-.7,2.7s.2,1.5.6,1.8c.4.4,1,.6,1.9.6s1.7-.3,2.2-.8c.5-.5.7-1.3.7-2.4l.4,2c0,1-.2,1.9-.5,2.6-.3.7-.8,1.2-1.4,1.6-.6.3-1.4.5-2.4.5h0ZM140.2,41.3v-15.5c0-.9-.2-1.5-.7-2-.4-.5-1.1-.7-1.9-.7s-1.3.2-1.7.7c-.4.5-.6,1.1-.6,2h-3.8c0-1.9.5-3.4,1.6-4.5s2.6-1.6,4.5-1.6,3.5.5,4.6,1.6,1.6,2.5,1.6,4.5v15.5h-3.8Z"></path><path class="cls-1" d="M148.4,41.3V11.7h3.9v29.6h-3.9ZM156.2,41.6c-1,0-1.9-.3-2.6-1-.7-.6-1.3-1.5-1.6-2.7l.3-3.3c0,.7.1,1.3.3,1.8s.5.9.8,1.2c.4.3.8.4,1.3.4.8,0,1.4-.3,1.8-.9.4-.6.7-1.5.7-2.5v-7.9c0-1-.2-1.9-.7-2.5s-1.1-.9-1.8-.9-1,.1-1.3.4c-.4.3-.6.6-.8,1.1-.2.5-.3,1.1-.3,1.8l-.4-2.9c.4-1.2,1.1-2.2,1.9-2.9.8-.7,1.7-1,2.6-1,1.5,0,2.7.6,3.5,1.8.8,1.2,1.2,2.8,1.2,5v8.2c0,2.2-.4,3.8-1.3,5-.9,1.2-2.1,1.8-3.6,1.8h0Z"></path><path class="cls-1" d="M170.6,41.6c-2,0-3.5-.6-4.7-1.7s-1.7-2.7-1.7-4.6v-.2h3.8v.2c0,.9.2,1.6.7,2.1.4.5,1.1.8,1.9.8s1.4-.2,1.9-.7c.4-.5.7-1.2.7-2s-.2-1.2-.5-1.5c-.3-.4-.7-.7-1.3-.9-.5-.2-1.1-.5-1.7-.7-.6-.2-1.2-.5-1.8-.8s-1.2-.7-1.7-1.1-.9-1-1.2-1.8c-.3-.7-.5-1.6-.5-2.7,0-1.9.5-3.5,1.6-4.6s2.5-1.7,4.4-1.7,3.3.5,4.4,1.6,1.6,2.5,1.6,4.4h0c0,.1-3.8.1-3.8.1v-.2c0-.8-.2-1.4-.6-1.8-.4-.4-.9-.6-1.6-.6s-1.2.2-1.6.7c-.4.5-.6,1.1-.6,2s.1,1.1.4,1.5.7.7,1.2.9,1,.4,1.6.6c.6.2,1.3.4,1.9.7s1.2.6,1.8,1.1c.5.5,1,1,1.3,1.8s.5,1.7.5,2.9c0,1.9-.6,3.4-1.7,4.5s-2.7,1.7-4.7,1.6Z"></path></g></g></g></svg>