<?xml version="1.0" encoding="utf-8"?>
<!-- Generator: Adobe Illustrator 24.3.0, SVG Export Plug-In . SVG Version: 6.00 Build 0)  -->
<svg version="1.1" id="Layer_1" xmlns="http://www.w3.org/2000/svg" xmlns:xlink="http://www.w3.org/1999/xlink" x="0px" y="0px"
	 viewBox="0 0 213.98 43.47" style="enable-background:new 0 0 213.98 43.47;" xml:space="preserve">
<style type="text/css">
	.st0{fill:#BAA981;}
</style>
<g>
	<g>
		<path class="st0" d="M76.54,33h2.71c0.44,0,0.86,0.05,1.25,0.15c0.39,0.1,0.73,0.26,1.02,0.48c0.29,0.22,0.52,0.51,0.68,0.86
			c0.17,0.35,0.25,0.78,0.25,1.29c0,0.48-0.08,0.9-0.23,1.25c-0.15,0.36-0.37,0.65-0.65,0.89c-0.28,0.24-0.61,0.41-1,0.53
			c-0.39,0.12-0.81,0.17-1.28,0.17h-2.75V33z M78.75,37.68c0.47,0,0.87-0.04,1.2-0.11c0.33-0.07,0.6-0.19,0.8-0.34
			c0.21-0.15,0.36-0.35,0.46-0.59c0.1-0.24,0.14-0.52,0.14-0.85c0-0.35-0.05-0.64-0.15-0.87c-0.1-0.23-0.25-0.42-0.46-0.57
			c-0.21-0.14-0.48-0.25-0.81-0.31c-0.33-0.06-0.72-0.1-1.18-0.1h-1.11v3.74H78.75z"/>
		<path class="st0" d="M86.51,33h5.04v0.94h-3.95v1.31h3.4v0.94h-3.4v1.49h4.04v0.94h-5.14V33z"/>
		<path class="st0" d="M97.63,33.94h-2.51V33h6.13v0.94h-2.51v4.68h-1.1V33.94z"/>
		<path class="st0" d="M105.16,33h3.38c0.33,0,0.64,0.02,0.92,0.07c0.28,0.05,0.52,0.13,0.73,0.26c0.2,0.12,0.36,0.29,0.48,0.51
			c0.11,0.22,0.17,0.5,0.17,0.84c0,0.26-0.04,0.49-0.13,0.69c-0.09,0.2-0.2,0.37-0.34,0.51c-0.14,0.14-0.31,0.25-0.5,0.32
			c-0.19,0.08-0.39,0.12-0.6,0.13l1.73,2.29h-1.35L108,36.41h-1.74v2.21h-1.1V33z M108.38,35.5c0.22,0,0.42-0.01,0.59-0.03
			c0.17-0.02,0.31-0.06,0.43-0.12c0.11-0.06,0.2-0.14,0.26-0.24c0.06-0.11,0.09-0.24,0.09-0.41c0-0.16-0.03-0.3-0.09-0.4
			c-0.06-0.1-0.14-0.18-0.26-0.24c-0.11-0.06-0.26-0.1-0.43-0.12c-0.17-0.02-0.37-0.03-0.59-0.03h-2.12v1.59H108.38z"/>
		<path class="st0" d="M114.77,35.85c0-0.39,0.06-0.76,0.17-1.12c0.12-0.36,0.31-0.68,0.57-0.96c0.27-0.28,0.61-0.5,1.04-0.67
			c0.43-0.17,0.95-0.25,1.57-0.25c0.62,0,1.14,0.08,1.57,0.25c0.43,0.17,0.77,0.39,1.04,0.67c0.27,0.28,0.46,0.6,0.57,0.96
			c0.12,0.36,0.17,0.73,0.17,1.12c0,0.29-0.05,0.61-0.15,0.95c-0.1,0.34-0.28,0.65-0.53,0.94c-0.25,0.29-0.59,0.53-1.03,0.73
			c-0.43,0.19-0.98,0.29-1.65,0.29c-0.67,0-1.21-0.1-1.65-0.29c-0.43-0.19-0.77-0.44-1.03-0.73c-0.25-0.29-0.43-0.61-0.53-0.94
			C114.82,36.46,114.77,36.15,114.77,35.85z M118.12,37.82c0.26,0,0.53-0.03,0.8-0.09c0.27-0.06,0.51-0.17,0.72-0.32
			c0.21-0.15,0.39-0.36,0.53-0.62c0.14-0.26,0.2-0.59,0.2-0.99c0-0.34-0.06-0.63-0.17-0.88c-0.11-0.25-0.27-0.45-0.47-0.62
			c-0.2-0.16-0.44-0.29-0.72-0.37c-0.28-0.08-0.57-0.12-0.89-0.12c-0.32,0-0.62,0.04-0.89,0.12c-0.28,0.08-0.51,0.2-0.72,0.37
			c-0.2,0.17-0.36,0.37-0.47,0.62c-0.11,0.25-0.17,0.54-0.17,0.88c0,0.4,0.07,0.73,0.2,0.99c0.14,0.26,0.31,0.47,0.53,0.62
			c0.21,0.15,0.45,0.26,0.72,0.32C117.59,37.79,117.85,37.82,118.12,37.82z"/>
		<path class="st0" d="M125.6,33h1.1v5.62h-1.1V33z"/>
		<path class="st0" d="M133.2,33.94h-2.52V33h6.13v0.94h-2.51v4.68h-1.1V33.94z"/>
	</g>
	<g>
		<g>
			<path class="st0" d="M1.62,4.65C1.53,4.34,1.56,4.17,1.91,4.17c4.14,0.03,8.28,0.02,12.42,0.09c1.02,0.02,1.96,0.43,2.81,1.04
				c2.12,1.53,1.59,4.93-0.43,6.2c-1,0.63-2.09,0.89-3.25,0.9c-1.81,0.02-3.62,0.02-5.43,0c-0.39,0-0.54,0.1-0.53,0.51
				c0.05,1.68,0.05,3.36,0.13,5.03c0.05,1,0.77,1.66,1.77,1.77c0.22,0.02,0.44,0.04,0.64,0.11c0.08,0.03,0.16,0.19,0.17,0.29
				c0,0.06-0.14,0.14-0.22,0.18c-0.06,0.03-0.14,0.01-0.21,0.01c-2.58,0-5.15,0-7.73,0c-0.17,0-0.44,0.12-0.46-0.22
				C1.56,19.77,1.8,19.79,2,19.76c0.24-0.03,0.49-0.04,0.73-0.1c0.97-0.26,1.41-0.83,1.53-2C4.3,17.3,4.3,16.93,4.3,16.57
				c0-2.92,0-5.85,0-8.77c0-0.39-0.02-0.78-0.08-1.17C3.93,4.9,3.14,4.88,2.07,4.69C1.93,4.67,1.79,4.67,1.62,4.65z M7.51,8.31
				c0,1.07,0,1.87,0,2.94c0,0.21-0.02,0.42,0.29,0.41c1.55-0.04,3.1,0,4.64-0.14c1.08-0.1,1.97-0.7,2.31-1.78
				c0.22-0.7,0.33-1.2,0.31-1.94c-0.05-1.99-1.25-2.84-3.23-2.86c-1.29-0.01-2.58,0.01-3.86-0.01C7.6,4.93,7.5,5.06,7.5,5.41
				C7.52,6.47,7.51,7.25,7.51,8.31z"/>
			<path class="st0" d="M112.58,20.27c-3.41,0-6.82,0-10.24,0c-0.08-0.27-0.07-0.46,0.26-0.45c2.65,0.14,4.13-1.47,5.15-3.61
				c0.75-1.57,1.34-3.22,1.98-4.84c0.8-2.01,1.57-4.03,2.35-6.05c0.23-0.59,0.45-1.19,0.7-1.77c0.06-0.15,0.23-0.35,0.35-0.35
				c0.13,0,0.3,0.18,0.38,0.32c1.63,3.07,3.24,6.16,4.87,9.23c0.94,1.77,1.9,3.53,2.83,5.31c0.64,1.24,1.63,1.83,3.02,1.75
				c0.16-0.01,0.33-0.03,0.47,0.01c0.09,0.02,0.16,0.15,0.24,0.23c-0.08,0.08-0.15-0.1-0.24-0.05c-0.05,0.03-0.03,0.25-0.11,0.25
				c-3.24,0-6.59,0.03-9.84,0.03c-0.06,0-0.13,0.02-0.17,0c-0.1-0.07-0.19-0.15-0.28-0.23c0.09-0.08,0.18-0.21,0.28-0.23
				c0.5-0.08,1.3-0.04,1.77-0.19c1.01-0.32,1.49-1.32,1.04-2.31c-0.57-1.26-1.29-2.31-1.94-3.53c-0.05-0.09-0.24-0.16-0.36-0.16
				c-1.71-0.01-3.42-0.01-5.13,0c-0.15,0-0.37,0.13-0.43,0.26c-0.29,0.66-0.49,1.18-0.76,1.85c-0.64,1.6,0.2,4.01,2.61,4.05
				c0.29,0.01,0.58,0.01,0.87,0C112.6,19.81,112.68,19.96,112.58,20.27z M115.17,13c-1.03-1.94-2.02-3.79-3.01-5.65
				c-0.05,0.02-0.09,0.03-0.14,0.05c-0.72,1.85-1.45,3.7-2.19,5.6C111.64,13,113.34,13,115.17,13z"/>
			<path class="st0" d="M157.75,9.13c0.13-0.01,0.28-0.02,0.42-0.02c2.88,0,5.76-0.03,8.64,0.01c1.17,0.02,2.34,0.12,3.5,0.29
				c0.9,0.13,1.75,0.49,2.14,1.43c0.43,1.03,0.24,2.12-0.77,2.79c-0.9,0.59-1.91,0.79-2.95,0.91c-0.33,0.04-0.66,0.04-1.11,0.07
				c0.17,0.13,0.25,0.21,0.34,0.24c1.04,0.39,1.82,1.09,2.4,2.03c0.26,0.43,0.56,0.84,0.86,1.25c0.49,0.68,1.15,1.08,2,1.15
				c0.07,0.01,0.13,0.04,0.34,0.11c-0.27,0.3-0.45,0.59-0.71,0.77c-1.25,0.88-3.1,0.58-4.2-0.77c-0.64-0.77-1.11-1.68-1.65-2.53
				c-0.22-0.35-0.41-0.73-0.63-1.08c-0.8-1.22-1.62-1.25-2.99-1.2c-0.07,0-0.2,0.14-0.19,0.21c0.01,1.1-0.04,2.21,0.09,3.29
				c0.14,1.23,0.53,1.51,1.76,1.71c0.21,0.03,0.63-0.13,0.58,0.31c-0.04,0.36-0.4,0.19-0.61,0.19c-2.23,0.01-4.46,0.01-6.69,0.01
				c-0.12,0-0.24,0.03-0.34-0.01c-0.1-0.04-0.23-0.15-0.23-0.22c0-0.09,0.12-0.21,0.22-0.24c0.19-0.06,0.4-0.06,0.6-0.09
				c0.73-0.11,1.15-0.5,1.28-1.21c0.08-0.45,0.14-0.92,0.14-1.38c0.02-1.68,0.02-3.36,0-5.04c0-0.43-0.07-0.87-0.15-1.29
				c-0.16-0.78-0.62-1.09-1.73-1.2C157.69,9.58,157.69,9.58,157.75,9.13z M163.15,14.04c0.11,0.03,0.16,0.05,0.22,0.05
				c1.26,0,2.52,0.05,3.78-0.03c1.47-0.09,2.17-0.9,2.19-2.37c0.01-1.05-0.62-1.81-1.57-1.87c-1.44-0.09-2.89-0.08-4.34-0.09
				c-0.1,0-0.28,0.17-0.29,0.27C163.13,11.38,163.15,12.64,163.15,14.04z"/>
			<path class="st0" d="M204.98,20.66c-1.48-2.42-2.63-4.75-4.05-7.07c-0.04,0.01-0.09,0.02-0.13,0.03
				c-0.89,2.33-1.78,4.67-2.71,7.09c-0.57-1-1.09-1.91-1.61-2.83c-1.22-2.13-2.43-4.26-3.65-6.39c-0.12-0.21-0.26-0.41-0.41-0.61
				c-0.4-0.53-1.15-0.97-1.88-0.97c-0.32,0-0.45-0.15-0.32-0.5c2.72,0,5.45,0,8.19,0c0.13,0.35,0.02,0.48-0.34,0.48
				c-0.3,0-0.61,0.05-0.91,0.05c-0.91,0.01-1.24,0.55-0.87,1.46c0.34,0.82,0.83,1.58,1.27,2.36c0.39,0.71,0.8,1.4,1.21,2.1
				c0.06,0.1,0.13,0.18,0.25,0.33c0.88-2.31,1.73-4.56,2.64-6.94c1.5,2.38,2.94,4.64,4.44,7.03c0.21-0.51,0.37-0.89,0.51-1.27
				c0.36-1,0.76-1.99,1.05-3.02c0.11-0.4,0.02-0.89-0.08-1.31c-0.12-0.47-0.53-0.66-0.99-0.71c-0.36-0.04-0.72-0.04-1.08-0.09
				c-0.09-0.01-0.17-0.18-0.25-0.27c0.09-0.07,0.17-0.2,0.26-0.2c2.08-0.01,4.44-0.01,6.57-0.01c0.01,0.17,0.02,0.3,0.02,0.47
				c-0.32,0.02-0.61,0.06-0.89,0.06c-1.39-0.01-2.12,0.81-2.57,2c-0.88,2.33-1.78,4.66-2.67,6.99c-0.18,0.47-0.36,0.94-0.54,1.41
				C205.4,20.42,205.07,20.5,204.98,20.66z"/>
			<path class="st0" d="M140.67,9.11c0.16,0,0.3,0,0.44,0c2.75,0,5.5-0.01,8.25,0c1.34,0,2.66,0.15,3.9,0.7
				c2.24,0.99,3.36,2.89,3.15,5.35c-0.2,2.28-1.54,3.69-3.57,4.53c-1.11,0.46-2.28,0.61-3.48,0.61c-2.75,0-5.5,0-8.25,0
				c-0.09,0-0.19,0.02-0.26-0.01c-0.09-0.04-0.22-0.15-0.21-0.2c0.02-0.1,0.12-0.24,0.2-0.25c0.36-0.06,0.72-0.07,1.08-0.12
				c0.63-0.08,1.11-0.5,1.23-1.12c0.08-0.44,0.15-0.89,0.16-1.33c0.02-1.62,0.02-3.24,0-4.86c0-0.49-0.06-0.98-0.14-1.46
				c-0.11-0.74-0.59-1.17-1.34-1.25c-0.29-0.03-0.58-0.07-0.86-0.07C140.62,9.62,140.56,9.46,140.67,9.11z M146.49,19.69
				c1.04,0,2.01,0.07,2.97-0.02c1.42-0.13,2.45-0.89,3.04-2.17c0.79-1.73,0.82-3.51,0.06-5.26c-0.55-1.27-1.46-2.18-2.85-2.46
				c-0.87-0.17-1.79-0.08-2.68-0.14c-0.46-0.03-0.55,0.14-0.55,0.57c0.02,3.04,0.01,5.99,0.01,9.03
				C146.49,19.4,146.49,19.56,146.49,19.69z"/>
			<path class="st0" d="M188.95,16.38c0,1.38,0,2.76,0,4.17c-4.74,0-9.47,0-14.21,0c0-0.14,0-0.27,0-0.41
				c0.37-0.04,0.71-0.07,1.05-0.11c0.99-0.13,1.44-0.59,1.51-1.58c0.06-0.85,0.08-1.71,0.08-2.56c0-1.37,0-2.75-0.06-4.12
				c-0.06-1.28-0.48-1.69-1.73-1.82c-0.22-0.02-0.44-0.01-0.65-0.06c-0.09-0.02-0.21-0.16-0.21-0.25c0-0.08,0.13-0.18,0.22-0.23
				c0.08-0.04,0.2-0.01,0.3-0.01c4.3,0,8.6,0,12.9,0c0.57,0,0.57,0,0.58,0.57c0,0.96,0.01,1.91-0.01,2.87
				c0,0.15-0.14,0.29-0.21,0.44c-0.1-0.11-0.24-0.21-0.29-0.34c-0.68-1.87-2-2.62-3.99-2.72c-1.08-0.06-2.17-0.02-3.26-0.04
				c-0.28,0-0.38,0.12-0.38,0.39c0.01,1.2,0,2.13,0.01,3.33c0,0.12,0.14,0.34,0.21,0.34c0.85,0,1.71,0.03,2.55-0.07
				c0.93-0.11,1.37-0.78,1.52-1.66c0.02-0.1,0-0.22,0.05-0.3c0.08-0.11,0.21-0.18,0.32-0.27c0.07,0.11,0.19,0.22,0.19,0.33
				c0.02,0.64,0.01,1.27,0.01,1.91c0,0.8,0.01,1.59-0.01,2.39c0,0.13-0.15,0.25-0.22,0.38c-0.1-0.12-0.27-0.22-0.3-0.35
				c-0.33-1.36-0.69-1.7-2.08-1.81c-0.62-0.05-1.24-0.02-1.87-0.04c-0.28-0.01-0.38,0.11-0.38,0.39c0.01,1.53,0.01,2.79,0,4.33
				c0,0.28,0.12,0.39,0.39,0.38c1.29-0.04,2.58-0.03,3.86-0.13c1.7-0.14,3.19-1.25,3.57-2.93
				C188.48,16.48,188.55,16.24,188.95,16.38z"/>
			<path class="st0" d="M73.77,9.13c0.14-0.01,0.26-0.02,0.37-0.02c2.06,0,4.11,0,6.17,0c0.17,0,0.4-0.08,0.41,0.23
				c0.01,0.29-0.2,0.26-0.39,0.28c-0.32,0.03-0.64,0.04-0.95,0.11c-1.28,0.31-1.83,1-1.86,2.4c-0.03,1.58-0.01,3.16-0.01,4.74
				c0,0.97,0,1.94,0,2.91c0,0.16-0.01,0.31-0.02,0.48c-0.64,0.09-1.15,0.06-1.65-0.47c-2.55-2.7-4.88-5.36-7.46-8.04
				c-0.12-0.12-0.21-0.28-0.31-0.42c-0.04,0.02-0.09,0.04-0.13,0.07c-0.01,0.12-0.04,0.23-0.04,0.35c0,1.84-0.01,3.68,0.01,5.52
				c0.01,0.4,0.08,0.81,0.22,1.18c0.3,0.78,0.69,1.12,1.47,1.25c0.3,0.05,0.61,0.05,0.9,0.12c0.12,0.03,0.21,0.16,0.31,0.25
				c-0.11,0.08-0.21,0.21-0.33,0.22c-0.35,0.03-0.69,0.01-1.04,0.01c-1.74,0-3.48,0-5.21-0.01c-0.13,0-0.36-0.1-0.38-0.19
				c-0.08-0.28,0.17-0.27,0.35-0.3c0.36-0.06,0.72-0.08,1.06-0.19c1.33-0.43,1.84-1.08,1.86-2.48c0.03-2.03,0.01-4.05-0.01-6.08
				c0-0.19-0.12-0.42-0.26-0.56c-0.48-0.5-1.08-0.76-1.77-0.82c-0.35-0.03-0.7-0.03-1.04-0.08c-0.09-0.02-0.17-0.17-0.25-0.27
				c0.09-0.07,0.17-0.16,0.27-0.21c0.07-0.03,0.17-0.01,0.26-0.01c1.72,0,3.45,0.01,5.17-0.01c0.32,0,0.54,0.1,0.76,0.32
				c2.09,2.16,3.92,4.31,6.03,6.47c0.12,0.12,0.25,0.23,0.45,0.42c0.02-0.23,0.04-0.36,0.04-0.49c0-1.09,0-2.17,0-3.26
				c-0.01-1.8-0.53-2.7-2.31-2.91c-0.13-0.02-0.26-0.03-0.39-0.04C73.73,9.58,73.73,9.58,73.77,9.13z"/>
			<path class="st0" d="M35.7,20.28c-0.2,0.01-0.33,0.02-0.46,0.02c-4.46,0-8.92,0-13.38,0c-0.06,0-0.13,0.02-0.17,0
				c-0.1-0.05-0.18-0.13-0.27-0.2c0.08-0.09,0.15-0.25,0.24-0.27c0.3-0.06,0.6-0.06,0.9-0.1c0.89-0.12,1.35-0.58,1.43-1.47
				c0.06-0.68,0.09-1.36,0.09-2.04c-0.01-1.64,0-3.27-0.08-4.9c-0.05-1.13-0.51-1.54-1.65-1.66c-0.19-0.02-0.37-0.03-0.56-0.05
				c-0.39-0.03-0.39-0.04-0.3-0.5c0.14,0,0.3,0,0.45,0c4.31,0,8.63,0.01,12.94-0.01c0.43,0,0.58,0.1,0.57,0.55
				c-0.03,0.95,0,1.91-0.02,2.87c0,0.16-0.12,0.31-0.19,0.46c-0.11-0.12-0.27-0.22-0.32-0.36c-0.66-1.79-1.91-2.56-3.83-2.69
				c-1.14-0.08-2.29-0.04-3.43-0.06c-0.26,0-0.37,0.1-0.37,0.36c0,1.23,0,2.19,0.01,3.42c0,0.1,0.14,0.29,0.21,0.29
				c0.84,0,1.68,0.04,2.51-0.06c0.97-0.11,1.42-0.79,1.57-1.71c0.01-0.06,0-0.13,0.03-0.17c0.09-0.12,0.19-0.24,0.29-0.35
				c0.08,0.12,0.22,0.25,0.23,0.37c0.02,0.72,0.01,1.45,0.01,2.17c0,0.69,0.01,1.39-0.01,2.08c0,0.13-0.12,0.25-0.18,0.37
				c-0.12-0.12-0.31-0.22-0.33-0.35c-0.14-0.81-0.44-1.47-1.32-1.61c-0.91-0.14-1.84-0.12-2.77-0.14c-0.08,0-0.24,0.21-0.24,0.32
				c-0.02,1.56-0.02,2.78,0,4.35c0,0.11,0.19,0.32,0.28,0.32c1.5-0.01,3.02,0.17,4.49-0.24c1.61-0.44,2.63-1.21,3.05-2.84
				c0.04-0.15,0.23-0.26,0.35-0.39c0.07,0.15,0.19,0.3,0.19,0.45C35.71,17.75,35.7,18.99,35.7,20.28z"/>
			<path class="st0" d="M136.38,16.31c0.02-0.25,0.04-0.38,0.04-0.5c0-1.1,0.01-2.2,0-3.3c-0.01-1.73-0.83-2.64-2.56-2.84
				c-0.16-0.02-0.33-0.01-0.47-0.06c-0.11-0.04-0.19-0.16-0.28-0.24c0.1-0.08,0.2-0.17,0.31-0.25c0.02-0.01,0.06,0,0.09,0
				c2.06,0,4.11,0,6.17,0c0.17,0,0.4-0.07,0.41,0.24c0.01,0.29-0.21,0.25-0.39,0.27c-0.32,0.03-0.36,0.04-0.67,0.12
				c-1.28,0.31-1.82,1-1.85,2.41c-0.03,1.19-0.01,2.37-0.01,3.56c0,1.38-0.01,2.75,0.01,4.13c0,0.34-0.34,0.47-0.72,0.49
				c-0.51,0.03-0.86-0.15-1.2-0.51c-2.58-2.7-5.18-5.38-7.77-8.06c-0.12-0.12-0.22-0.26-0.33-0.39c-0.04,0.02-0.07,0.03-0.11,0.05
				c-0.01,0.13-0.04,0.27-0.04,0.4c0,1.78-0.01,3.56,0.01,5.34c0.01,0.43,0.07,0.88,0.21,1.27c0.29,0.8,0.96,1.16,1.76,1.29
				c0.29,0.05,0.57,0.08,0.86,0.1c0.31,0.01,0.43,0.14,0.31,0.47c-2.28,0-4.58,0-6.87,0c-0.13-0.3-0.04-0.43,0.27-0.47
				c0.37-0.04,0.75-0.08,1.11-0.19c1.33-0.43,1.57-1.12,1.59-2.52c0.02-2,0.01-4-0.01-5.99c0-0.2-0.12-0.45-0.26-0.6
				c-0.67-0.71-1.27-0.83-2.19-0.88c-0.21-0.01-0.61,0.17-0.59-0.28c0.02-0.39,0.39-0.21,0.59-0.21c1.68-0.02,3.36,0,5.04-0.02
				c0.37,0,0.62,0.12,0.86,0.38c2.09,2.16,4.2,4.31,6.3,6.47C136.08,16.05,136.19,16.14,136.38,16.31z"/>
			<path class="st0" d="M50.9,8.93c0,1.33,0,2.57,0,3.81c-0.03,0.03-0.06,0.06-0.09,0.1c-0.16-0.13-0.33-0.24-0.47-0.38
				c-0.67-0.71-1.29-1.22-2.02-1.87c-2.42-2.15-6.11-1.13-7.09,1.95c-0.61,1.91-0.57,3.52,0.45,5.3c0.62,1.09,1.47,1.68,2.73,1.97
				c1.13,0.26,2.24,0.15,3.13-0.67c0.32-0.29,0.59-0.75,0.67-1.17c0.13-0.72,0.13-1.19,0.09-1.92c-0.03-0.67-0.39-0.96-1.07-1.03
				c-0.27-0.03-0.55-0.01-0.82-0.04c-0.09-0.01-0.17-0.14-0.26-0.21c0.09-0.09,0.16-0.19,0.26-0.27c0.04-0.03,0.11-0.01,0.17-0.01
				c2.11,0,4.23,0,6.34,0c0.32,0,0.51,0.07,0.37,0.47c-0.23,0.01-0.46,0.02-0.68,0.04c-0.65,0.06-1.02,0.36-1.04,1
				c-0.03,0.94-0.21,1.91,0.31,2.85c-0.43,0.1-0.84,0.17-1.23,0.29c-1.09,0.34-2.18,0.68-3.25,1.06c-1.54,0.55-3.09,0.5-4.66,0.15
				c-1.45-0.32-2.76-0.9-3.82-1.99c-1.68-1.73-1.94-4.53-0.55-6.51c1.18-1.67,2.84-2.58,4.83-2.94c1.48-0.27,2.93-0.16,4.37,0.28
				c0.96,0.29,1.91,0.24,2.83-0.19C50.53,8.95,50.7,8.96,50.9,8.93z"/>
			<path class="st0" d="M91.11,20.48c-1.3,0-2.61,0.01-3.91-0.01c-0.13,0-0.35-0.12-0.37-0.21c-0.06-0.29,0.19-0.24,0.37-0.26
				c0.32-0.02,0.91-0.03,1.22-0.08c0.67-0.12,1.01-0.63,0.74-1.23c-0.34-0.75-0.75-1.43-1.17-2.13c-0.05-0.09-0.25-0.14-0.38-0.14
				c-1.19-0.01-2.37-0.01-3.56,0c-0.13,0-0.32,0.05-0.38,0.14c-0.74,1.23-0.86,2.72,0.63,3.29c0.4,0.15,0.61,0.09,1.05,0.16
				c0.15,0.02,0.39,0.13,0.41,0.23c0.06,0.3-0.21,0.24-0.38,0.24c-2.33,0-4.39,0.01-6.72-0.01c-0.13,0-0.25-0.14-0.38-0.21
				c0.1-0.09,0.2-0.24,0.31-0.25c1.91-0.05,3.16-1.04,3.93-2.72c1.23-2.69,2.44-5.39,3.67-8.08c0.08-0.18,0.25-0.39,0.42-0.46
				c0.31-0.11,0.45,0.16,0.58,0.39c1.78,3.11,3.59,6.2,5.34,9.32c0.57,1.02,1.38,1.51,2.52,1.52c0.19,0,0.41-0.03,0.39,0.26
				c-0.02,0.31-0.26,0.21-0.43,0.22C93.71,20.48,92.41,20.48,91.11,20.48z M87.57,15.9c-0.68-1.22-1.31-2.35-1.95-3.48
				c-0.05,0-0.17,0-0.22,0c-0.51,1.13-1.01,2.27-1.55,3.47C85.12,15.9,86.33,15.9,87.57,15.9z"/>
			<path class="st0" d="M58.28,20.3c-1.27,0-2.55,0-3.82,0c-0.18,0-0.47,0.1-0.43-0.24c0.01-0.1,0.26-0.23,0.4-0.23
				c1.76-0.09,2.18-0.55,2.24-2.33c0.06-1.87,0.02-3.74,0.01-5.6c0-0.39-0.06-0.78-0.17-1.16c-0.16-0.6-0.58-0.96-1.2-1.04
				c-0.33-0.04-0.67-0.04-0.99-0.1C54.2,9.58,54.1,9.44,54,9.36c0.1-0.08,0.21-0.23,0.31-0.23c0.96-0.02,1.91-0.01,2.87-0.01
				c1.67,0,3.33,0,5,0c0.17,0,0.4-0.07,0.4,0.24c0,0.3-0.21,0.25-0.4,0.26c-0.13,0.01-0.26,0.02-0.39,0.03
				c-1.55,0.08-1.83,0.75-1.87,1.98c-0.08,2.04-0.03,4.08-0.02,6.12c0,0.3,0.07,0.61,0.14,0.9c0.16,0.62,0.62,1,1.27,1.07
				c0.32,0.03,0.64,0.05,0.95,0.11c0.12,0.02,0.21,0.17,0.31,0.26c-0.11,0.07-0.23,0.21-0.34,0.21
				C60.91,20.31,59.59,20.3,58.28,20.3z"/>
			<path class="st0" d="M20.42,19.55c-0.21,0.19-0.37,0.41-0.59,0.51c-1.32,0.6-2.6,0.6-3.88-0.18c-1.37-0.83-2.06-2.13-2.71-3.5
				c-0.54-1.14-1.26-3.21-2.93-4.15c-0.31-0.18,0.71,0.11,1.12,0.08c1.11-0.07,2.43,0.47,3.17,1.29c0.94,1.05,1.73,2.23,2.59,3.35
				c0.46,0.6,0.9,1.2,1.38,1.77c0.39,0.46,0.9,0.72,1.53,0.68c0.06,0,0.12,0.01,0.17,0.02C20.27,19.44,20.3,19.46,20.42,19.55z"/>
			<path class="st0" d="M188.98,20.54c-0.2,0.01-0.33,0.02-0.46,0.02c-4.46,0-8.92,0-13.38,0c-0.06,0-0.13,0.02-0.17,0
				c-0.1-0.05-0.18-0.13-0.27-0.2c0.08-0.09,0.15-0.25,0.24-0.27c0.3-0.06,0.6-0.06,0.9-0.1c0.89-0.12,1.35-0.57,1.43-1.47
				c0.06-0.68,0.09-1.36,0.09-2.04c-0.01-1.64,0-3.27-0.08-4.9c-0.05-1.13-0.51-1.54-1.65-1.66c-0.19-0.02-0.37-0.03-0.56-0.05
				c-0.39-0.03-0.39-0.04-0.3-0.5c0.14,0,0.3,0,0.45,0c4.31,0,8.63,0.01,12.94-0.01c0.43,0,0.58,0.1,0.57,0.55
				c-0.03,0.95,0,1.91-0.02,2.87c0,0.16-0.12,0.31-0.19,0.46c-0.11-0.12-0.27-0.22-0.32-0.36c-0.66-1.79-1.91-2.56-3.83-2.69
				c-1.14-0.08-2.29-0.04-3.43-0.06c-0.26,0-0.37,0.1-0.37,0.36c0,1.23,0,2.19,0.01,3.42c0,0.1,0.14,0.29,0.21,0.29
				c0.84,0,1.68,0.04,2.51-0.06c0.97-0.11,1.42-0.79,1.57-1.71c0.01-0.06,0-0.13,0.03-0.17c0.09-0.12,0.19-0.24,0.29-0.35
				c0.08,0.12,0.22,0.25,0.23,0.37c0.02,0.72,0.01,1.45,0.01,2.17c0,0.69,0.01,1.39-0.01,2.08c0,0.13-0.12,0.25-0.18,0.37
				c-0.12-0.12-0.31-0.22-0.33-0.35c-0.14-0.81-0.37-1.47-1.25-1.61c-0.91-0.14-1.84-0.12-2.77-0.14c-0.08,0-0.24,0.21-0.24,0.32
				c-0.02,1.56-0.09,2.78-0.07,4.35c0,0.11,0.19,0.32,0.28,0.32c1.5-0.01,3.02,0.17,4.49-0.24c1.61-0.44,2.63-1.21,3.05-2.84
				c0.04-0.15,0.23-0.26,0.35-0.39c0.07,0.15,0.19,0.3,0.19,0.45C188.98,18,188.98,19.24,188.98,20.54z"/>
		</g>
	</g>
</g>
</svg>
