<svg id="Layer_1" data-name="Layer 1" xmlns="http://www.w3.org/2000/svg" viewBox="0 0 210.52 35.55"><defs><style>.cls-1{fill:#231f20;}</style></defs><path class="cls-1" d="M76.54,33h2.71a5,5,0,0,1,1.25.15,2.71,2.71,0,0,1,1,.48,2.35,2.35,0,0,1,.69.86,2.94,2.94,0,0,1,.25,1.29A3.2,3.2,0,0,1,82.22,37a2.45,2.45,0,0,1-.65.89,2.74,2.74,0,0,1-1,.53,4.31,4.31,0,0,1-1.28.17H76.54Zm2.21,4.68a5.84,5.84,0,0,0,1.2-.11,2,2,0,0,0,.8-.34,1.34,1.34,0,0,0,.46-.59,2.36,2.36,0,0,0,.14-.85,2.26,2.26,0,0,0-.15-.87,1.27,1.27,0,0,0-.46-.57,2,2,0,0,0-.8-.31,6.7,6.7,0,0,0-1.19-.1H77.64v3.74Z" transform="translate(-1.58 -3.21)"/><path class="cls-1" d="M86.51,33h5v.94h-4v1.31H91v.94h-3.4v1.49h4v.94H86.51Z" transform="translate(-1.58 -3.21)"/><path class="cls-1" d="M97.63,33.94H95.12V33h6.12v.94H98.73v4.68h-1.1Z" transform="translate(-1.58 -3.21)"/><path class="cls-1" d="M105.16,33h3.38a5.29,5.29,0,0,1,.92.07,2.11,2.11,0,0,1,.72.25,1.3,1.3,0,0,1,.48.51,1.89,1.89,0,0,1,.17.85,1.67,1.67,0,0,1-.13.69,1.52,1.52,0,0,1-.34.51,1.58,1.58,0,0,1-.51.32,1.69,1.69,0,0,1-.59.13L111,38.62h-1.35L108,36.41h-1.74v2.21h-1.1Zm3.22,2.5a5.15,5.15,0,0,0,.59,0,1.16,1.16,0,0,0,.42-.12.67.67,0,0,0,.26-.24,1,1,0,0,0,.08-.41.92.92,0,0,0-.08-.4.67.67,0,0,0-.26-.24,1.16,1.16,0,0,0-.42-.12,5.15,5.15,0,0,0-.59,0h-2.12V35.5Z" transform="translate(-1.58 -3.21)"/><path class="cls-1" d="M114.77,35.85a3.73,3.73,0,0,1,.17-1.11,2.61,2.61,0,0,1,.57-1,3,3,0,0,1,1-.67,4.27,4.27,0,0,1,1.57-.25,4.18,4.18,0,0,1,1.56.25,2.79,2.79,0,0,1,1,.67,2.36,2.36,0,0,1,.57,1,3.44,3.44,0,0,1,.18,1.11,3.34,3.34,0,0,1-.15.95,2.65,2.65,0,0,1-.53,1,2.83,2.83,0,0,1-1,.72,4,4,0,0,1-1.65.29,3.94,3.94,0,0,1-1.65-.29,3,3,0,0,1-1-.72,2.62,2.62,0,0,1-.52-1A3.34,3.34,0,0,1,114.77,35.85Zm3.35,2a3.7,3.7,0,0,0,.8-.09,2.14,2.14,0,0,0,.72-.33,1.68,1.68,0,0,0,.52-.62,2.07,2.07,0,0,0,.21-1,2.16,2.16,0,0,0-.17-.88,1.7,1.7,0,0,0-.47-.62,2,2,0,0,0-.72-.37,3.14,3.14,0,0,0-.89-.12,3.26,3.26,0,0,0-.9.12,2.09,2.09,0,0,0-.71.37,1.7,1.7,0,0,0-.47.62,2,2,0,0,0-.17.88,2.08,2.08,0,0,0,.2,1,1.7,1.7,0,0,0,.53.62,2,2,0,0,0,.72.33A3.63,3.63,0,0,0,118.12,37.82Z" transform="translate(-1.58 -3.21)"/><path class="cls-1" d="M125.6,33h1.1v5.62h-1.1Z" transform="translate(-1.58 -3.21)"/><path class="cls-1" d="M133.2,33.94h-2.52V33h6.13v.94H134.3v4.68h-1.1Z" transform="translate(-1.58 -3.21)"/><path class="cls-1" d="M1.62,4.65c-.09-.31-.06-.48.29-.48,4.14,0,8.28,0,12.42.09a4.94,4.94,0,0,1,2.8,1c2.13,1.53,1.59,4.92-.42,6.2a6.07,6.07,0,0,1-3.25.9c-1.81,0-3.62,0-5.43,0-.39,0-.54.1-.53.51.06,1.68,0,3.36.13,5A1.86,1.86,0,0,0,9.4,19.71a3.29,3.29,0,0,1,.64.11c.09,0,.16.19.17.29s-.14.14-.23.19a.74.74,0,0,1-.21,0H2c-.17,0-.44.11-.46-.23s.22-.28.42-.31a6.09,6.09,0,0,0,.73-.1,2,2,0,0,0,1.53-2,9.93,9.93,0,0,0,0-1.09c0-2.92,0-5.85,0-8.77a7.67,7.67,0,0,0-.08-1.17C3.93,4.9,3.14,4.88,2.07,4.69ZM7.51,8.31v2.94c0,.2,0,.42.29.41,1.55,0,3.1,0,4.64-.14a2.54,2.54,0,0,0,2.31-1.78,5.31,5.31,0,0,0,.31-1.93C15,5.81,13.81,5,11.83,5c-1.28,0-2.57,0-3.86,0-.37,0-.47.13-.47.48C7.52,6.47,7.51,7.25,7.51,8.31Z" transform="translate(-1.58 -3.21)"/><path class="cls-1" d="M112.58,20.27H102.34c-.07-.26-.07-.46.26-.44,2.66.13,4.13-1.47,5.15-3.61.75-1.57,1.34-3.22,2-4.84.8-2,1.57-4,2.35-6.05.23-.59.46-1.19.71-1.77.06-.15.22-.35.34-.35s.31.18.38.32q2.44,4.61,4.87,9.23c.94,1.77,1.9,3.53,2.83,5.31a3,3,0,0,0,3,1.75,1.46,1.46,0,0,1,.47,0c.1,0,.17.15.25.23-.08.07-.15-.11-.24-.05s0,.25-.11.25l-9.84,0c-.06,0-.13,0-.17,0a3.22,3.22,0,0,1-.28-.24c.09-.08.18-.21.28-.23a14.9,14.9,0,0,0,1.78-.18,1.65,1.65,0,0,0,1-2.32c-.57-1.26-1.29-2.3-2-3.52a.44.44,0,0,0-.36-.16c-1.7,0-3.41,0-5.12,0a.56.56,0,0,0-.43.26c-.29.66-.49,1.19-.76,1.86a2.91,2.91,0,0,0,2.61,4.05h.87C112.6,19.81,112.68,20,112.58,20.27ZM115.17,13l-3-5.65L112,7.4c-.73,1.85-1.45,3.7-2.19,5.6Z" transform="translate(-1.58 -3.21)"/><path class="cls-1" d="M157.75,9.13l.41,0c2.89,0,5.77,0,8.65,0a27.07,27.07,0,0,1,3.49.28,2.51,2.51,0,0,1,2.14,1.43,2.15,2.15,0,0,1-.77,2.79,6.53,6.53,0,0,1-2.95.91c-.33,0-.66,0-1.11.06a2.94,2.94,0,0,0,.34.25,4.73,4.73,0,0,1,2.4,2c.26.43.56.84.86,1.25a2.62,2.62,0,0,0,2,1.16,1.62,1.62,0,0,1,.33.11,5.43,5.43,0,0,1-.71.77,3.17,3.17,0,0,1-4.2-.77A23.88,23.88,0,0,1,167,16.87c-.22-.35-.41-.73-.64-1.08-.8-1.22-1.61-1.25-3-1.21a.32.32,0,0,0-.2.22c0,1.1,0,2.2.09,3.29s.54,1.51,1.76,1.71c.21,0,.63-.13.58.3s-.4.19-.61.19c-2.23,0-4.46,0-6.69,0a1,1,0,0,1-.34,0c-.1,0-.24-.14-.23-.22a.35.35,0,0,1,.21-.24,4.14,4.14,0,0,1,.6-.09,1.37,1.37,0,0,0,1.28-1.22,7.86,7.86,0,0,0,.14-1.37q0-2.52,0-5a8,8,0,0,0-.15-1.29c-.17-.79-.62-1.09-1.73-1.2C157.69,9.58,157.69,9.58,157.75,9.13Zm5.4,4.91a1,1,0,0,0,.22.05c1.26,0,2.52.05,3.78,0a2.11,2.11,0,0,0,2.19-2.37,1.7,1.7,0,0,0-1.56-1.87c-1.45-.09-2.9-.08-4.34-.09-.1,0-.29.17-.29.27C163.13,11.38,163.15,12.64,163.15,14Z" transform="translate(-1.58 -3.21)"/><path class="cls-1" d="M205,20.66c-1.48-2.41-2.62-4.74-4-7.07l-.13,0c-.89,2.33-1.78,4.67-2.71,7.09-.56-1-1.08-1.91-1.61-2.83q-1.81-3.19-3.65-6.39a5.91,5.91,0,0,0-.41-.61,2.53,2.53,0,0,0-1.88-1c-.32,0-.45-.15-.32-.49h8.19c.13.35,0,.48-.34.47s-.61,0-.91,0c-.91,0-1.24.55-.87,1.46a22.39,22.39,0,0,0,1.27,2.36c.39.71.8,1.41,1.21,2.11a2.85,2.85,0,0,0,.25.33c.88-2.31,1.73-4.56,2.63-6.94l4.45,7c.2-.52.37-.89.51-1.28.36-1,.76-2,1-3a2.79,2.79,0,0,0-.08-1.31,1.05,1.05,0,0,0-1-.72c-.36,0-.72,0-1.08-.09-.09,0-.16-.18-.24-.27.08-.07.17-.2.25-.2h6.57l0,.47c-.32,0-.6.06-.89.06a2.6,2.6,0,0,0-2.57,2c-.88,2.34-1.78,4.66-2.67,7-.18.47-.35.94-.54,1.41C205.4,20.42,205.07,20.5,205,20.66Z" transform="translate(-1.58 -3.21)"/><path class="cls-1" d="M140.67,9.11h8.69a9.62,9.62,0,0,1,3.89.7,5,5,0,0,1,3.15,5.35,5.2,5.2,0,0,1-3.57,4.53,9,9,0,0,1-3.48.61H141.1c-.09,0-.19,0-.26,0s-.22-.15-.21-.2a.38.38,0,0,1,.21-.25c.35-.06.71-.07,1.07-.12a1.38,1.38,0,0,0,1.23-1.12,7.53,7.53,0,0,0,.15-1.33c0-1.62,0-3.24,0-4.86a12.18,12.18,0,0,0-.14-1.47,1.4,1.4,0,0,0-1.34-1.25,8.31,8.31,0,0,0-.86-.07C140.62,9.62,140.56,9.46,140.67,9.11Zm5.82,10.58c1,0,2,.08,3,0a3.55,3.55,0,0,0,3-2.18,6.25,6.25,0,0,0,.06-5.25,3.86,3.86,0,0,0-2.85-2.46A21.67,21.67,0,0,0,147,9.65c-.46,0-.56.14-.56.57,0,3,0,6,0,9Z" transform="translate(-1.58 -3.21)"/><path class="cls-1" d="M189,16.38v4.17H174.74v-.42c.36,0,.71-.06,1-.11a1.5,1.5,0,0,0,1.51-1.58c.06-.85.08-1.71.08-2.56,0-1.38,0-2.75-.07-4.13s-.47-1.68-1.73-1.82a4.48,4.48,0,0,1-.64-.06.33.33,0,0,1-.21-.25c0-.07.13-.18.22-.22a.75.75,0,0,1,.3,0h12.9c.58,0,.58,0,.58.56,0,1,0,1.92,0,2.87,0,.15-.14.29-.22.44-.09-.11-.24-.21-.28-.34a3.94,3.94,0,0,0-4-2.72c-1.09-.06-2.17,0-3.26,0-.28,0-.38.12-.38.39,0,1.2,0,2.13,0,3.33,0,.12.13.34.2.34a24.17,24.17,0,0,0,2.56-.07,1.73,1.73,0,0,0,1.51-1.66c0-.1,0-.22.06-.29a1.39,1.39,0,0,1,.32-.27c.06.1.18.21.19.32,0,.64,0,1.28,0,1.91,0,.8,0,1.6,0,2.39,0,.13-.15.25-.23.38-.1-.12-.26-.22-.3-.35-.33-1.36-.69-1.7-2.08-1.81-.62,0-1.24,0-1.86,0-.28,0-.39.11-.39.39,0,1.53,0,2.79,0,4.33,0,.28.12.38.39.38,1.29,0,2.58,0,3.86-.14a3.87,3.87,0,0,0,3.57-2.93C188.48,16.48,188.55,16.24,189,16.38Z" transform="translate(-1.58 -3.21)"/><path class="cls-1" d="M73.77,9.13l.37,0H80.3c.18,0,.41-.07.42.24s-.2.25-.39.27a7.46,7.46,0,0,0-1,.11,2.17,2.17,0,0,0-1.86,2.41c0,1.57,0,3.15,0,4.73v2.91c0,.16,0,.31,0,.48a1.66,1.66,0,0,1-1.65-.47c-2.55-2.7-4.88-5.36-7.46-8-.12-.13-.21-.28-.32-.42l-.13.07c0,.11,0,.23,0,.35,0,1.84,0,3.68,0,5.52a3.21,3.21,0,0,0,.22,1.18,1.68,1.68,0,0,0,1.47,1.25c.3.05.61.05.9.11.12,0,.21.17.31.25-.1.08-.21.21-.32.22-.35,0-.7,0-1,0-1.74,0-3.48,0-5.22,0-.13,0-.35-.09-.38-.19-.08-.28.17-.27.35-.3a7.34,7.34,0,0,0,1.06-.19,2.26,2.26,0,0,0,1.87-2.47c0-2,0-4.06,0-6.09a.91.91,0,0,0-.26-.56,2.68,2.68,0,0,0-1.77-.81c-.34,0-.69,0-1-.09-.09,0-.16-.17-.25-.26a1.78,1.78,0,0,1,.27-.21.74.74,0,0,1,.26,0c1.72,0,3.44,0,5.17,0a.93.93,0,0,1,.75.33c2.1,2.16,3.93,4.31,6,6.47l.45.42c0-.23,0-.36,0-.5V12.57c0-1.8-.53-2.7-2.31-2.91l-.39,0C73.73,9.58,73.73,9.58,73.77,9.13Z" transform="translate(-1.58 -3.21)"/><path class="cls-1" d="M35.7,20.28l-.45,0H21.87c-.06,0-.13,0-.17,0a1.71,1.71,0,0,1-.27-.2c.08-.09.15-.24.24-.26.3-.06.6-.06.91-.1A1.46,1.46,0,0,0,24,18.27q.09-1,.09-2c0-1.64,0-3.27-.08-4.91-.05-1.13-.51-1.53-1.65-1.66l-.56,0c-.39,0-.39,0-.3-.51H22c4.31,0,8.63,0,12.94,0,.43,0,.59.1.57.55,0,1,0,1.91,0,2.87a1.46,1.46,0,0,1-.18.46c-.12-.12-.28-.21-.33-.35A3.88,3.88,0,0,0,31.1,9.94c-1.14-.08-2.28,0-3.43-.06-.25,0-.37.1-.37.36,0,1.23,0,2.18,0,3.42a.41.41,0,0,0,.21.29A23.31,23.31,0,0,0,30,13.89a1.78,1.78,0,0,0,1.57-1.72.51.51,0,0,1,0-.17,4.47,4.47,0,0,1,.29-.35c.08.12.22.25.22.37,0,.73,0,1.45,0,2.17s0,1.39,0,2.09a1.26,1.26,0,0,1-.18.37c-.12-.11-.31-.22-.33-.35-.15-.81-.45-1.47-1.33-1.61a19.48,19.48,0,0,0-2.76-.14c-.08,0-.24.2-.24.32,0,1.56,0,2.78,0,4.34a.43.43,0,0,0,.29.32,16.9,16.9,0,0,0,4.49-.24,3.74,3.74,0,0,0,3-2.84c0-.15.23-.26.35-.39.07.15.19.29.19.44C35.71,17.75,35.7,19,35.7,20.28Z" transform="translate(-1.58 -3.21)"/><path class="cls-1" d="M136.38,16.31c0-.26,0-.38,0-.5,0-1.11,0-2.21,0-3.31a2.55,2.55,0,0,0-2.56-2.84,1.84,1.84,0,0,1-.47-.06c-.11,0-.18-.15-.28-.24l.31-.25h6.26c.17,0,.4-.07.41.24s-.21.25-.39.27a3.61,3.61,0,0,0-.67.12,2.18,2.18,0,0,0-1.86,2.41c0,1.18,0,2.37,0,3.56,0,1.37,0,2.75,0,4.12,0,.34-.35.47-.72.49a1.44,1.44,0,0,1-1.21-.51c-2.58-2.7-5.18-5.38-7.77-8.06-.12-.13-.22-.26-.33-.39l-.12,0c0,.14,0,.27,0,.4,0,1.78,0,3.56,0,5.35a3.68,3.68,0,0,0,.21,1.27A2,2,0,0,0,129,19.71a8.55,8.55,0,0,0,.87.09c.31,0,.42.14.3.47h-6.87c-.13-.3,0-.43.27-.47a5.85,5.85,0,0,0,1.11-.19c1.33-.43,1.57-1.12,1.58-2.52q0-3,0-6a1.06,1.06,0,0,0-.27-.6,2.78,2.78,0,0,0-2.18-.88c-.22,0-.62.17-.59-.28s.38-.21.59-.21c1.68,0,3.36,0,5,0a1.08,1.08,0,0,1,.86.38c2.09,2.16,4.2,4.31,6.3,6.47Z" transform="translate(-1.58 -3.21)"/><path class="cls-1" d="M50.9,8.93v3.81l-.09.1a3.4,3.4,0,0,1-.47-.38c-.68-.71-1.29-1.22-2-1.87a4.35,4.35,0,0,0-7.09,1.95,6,6,0,0,0,.44,5.3,3.9,3.9,0,0,0,2.74,2,3.3,3.3,0,0,0,3.13-.67A2.27,2.27,0,0,0,48.21,18a7.26,7.26,0,0,0,.09-1.92c0-.67-.39-1-1.07-1-.27,0-.55,0-.82,0-.09,0-.17-.14-.26-.21a2.13,2.13,0,0,1,.26-.26s.11,0,.17,0h6.34c.33,0,.51.08.37.48l-.68,0c-.65.06-1,.36-1,1a5,5,0,0,0,.31,2.84c-.44.1-.84.17-1.23.29-1.09.34-2.18.68-3.25,1.06a8.31,8.31,0,0,1-4.66.16,7.42,7.42,0,0,1-3.82-2,5.18,5.18,0,0,1-.55-6.5A7.21,7.21,0,0,1,43.2,8.93a9.12,9.12,0,0,1,4.37.28A3.86,3.86,0,0,0,50.4,9,2.09,2.09,0,0,1,50.9,8.93Z" transform="translate(-1.58 -3.21)"/><path class="cls-1" d="M91.11,20.48H87.2c-.13,0-.35-.12-.37-.21-.06-.3.2-.25.38-.26s.91,0,1.22-.08a.85.85,0,0,0,.74-1.24A22,22,0,0,0,88,16.55a.52.52,0,0,0-.38-.14c-1.19,0-2.37,0-3.56,0a.52.52,0,0,0-.38.14c-.73,1.24-.86,2.73.64,3.29a4,4,0,0,0,1.05.17c.15,0,.38.12.4.22.06.3-.2.24-.38.24-2.33,0-4.39,0-6.72,0-.12,0-.25-.14-.37-.21.1-.09.2-.25.3-.25a4.2,4.2,0,0,0,3.93-2.72C83.76,14.6,85,11.9,86.2,9.22a.87.87,0,0,1,.42-.46c.31-.11.45.16.58.39,1.78,3.11,3.59,6.2,5.34,9.32A2.69,2.69,0,0,0,95.05,20c.19,0,.41,0,.39.27s-.26.21-.42.21ZM87.57,15.9c-.68-1.21-1.31-2.35-1.95-3.48h-.21c-.51,1.13-1,2.27-1.55,3.47Z" transform="translate(-1.58 -3.21)"/><path class="cls-1" d="M58.28,20.3H54.45c-.17,0-.47.1-.43-.24,0-.09.26-.22.4-.23,1.76-.09,2.19-.55,2.25-2.34s0-3.73,0-5.6a4.17,4.17,0,0,0-.17-1.16,1.33,1.33,0,0,0-1.2-1c-.33,0-.66,0-1-.1-.11,0-.21-.16-.31-.24.1-.09.21-.24.31-.24,1,0,1.91,0,2.87,0h5c.17,0,.41-.07.41.24s-.22.25-.4.27l-.39,0c-1.55.08-1.83.75-1.87,2-.08,2,0,4.09,0,6.13a4.68,4.68,0,0,0,.14.9,1.41,1.41,0,0,0,1.27,1.07,7.46,7.46,0,0,1,.95.11c.12,0,.21.16.31.25-.11.08-.23.21-.34.21C60.91,20.31,59.59,20.3,58.28,20.3Z" transform="translate(-1.58 -3.21)"/><path class="cls-1" d="M20.42,19.55a3,3,0,0,1-.59.51,3.92,3.92,0,0,1-3.89-.18,7.36,7.36,0,0,1-2.7-3.5c-.55-1.14-1.26-3.21-2.94-4.15-.31-.18.71.11,1.12.08a4.21,4.21,0,0,1,3.16,1.29c.94,1.05,1.73,2.24,2.59,3.36.45.59.9,1.2,1.38,1.77a1.79,1.79,0,0,0,1.53.68l.17,0Z" transform="translate(-1.58 -3.21)"/><path class="cls-1" d="M189,20.54l-.46,0H175.14c-.06,0-.13,0-.17,0a2.61,2.61,0,0,1-.27-.19c.08-.09.15-.25.25-.27.29-.06.6-.06.9-.1a1.46,1.46,0,0,0,1.43-1.47,19.88,19.88,0,0,0,.08-2c0-1.63,0-3.27-.07-4.9,0-1.13-.51-1.54-1.66-1.66l-.56-.05c-.38,0-.39,0-.3-.5h13.4c.43,0,.58.09.56.55,0,.95,0,1.91,0,2.86a1.86,1.86,0,0,1-.19.47c-.11-.12-.27-.22-.32-.36a3.9,3.9,0,0,0-3.83-2.69c-1.14-.08-2.29,0-3.43,0-.26,0-.37.1-.37.35,0,1.23,0,2.19,0,3.42,0,.1.14.29.22.29a21,21,0,0,0,2.51-.06,1.78,1.78,0,0,0,1.57-1.71c0-.06,0-.13,0-.17s.19-.24.29-.35c.08.12.22.24.23.37,0,.72,0,1.45,0,2.17s0,1.39,0,2.08c0,.13-.12.25-.18.38-.11-.12-.31-.22-.33-.35-.14-.81-.37-1.48-1.25-1.62a21.24,21.24,0,0,0-2.77-.14c-.08,0-.24.21-.24.32,0,1.57-.08,2.79-.06,4.35,0,.11.18.32.28.32a17.31,17.31,0,0,0,4.49-.24,3.76,3.76,0,0,0,3-2.84c0-.15.23-.27.36-.4.06.15.19.3.19.45C189,18,189,19.24,189,20.54Z" transform="translate(-1.58 -3.21)"/></svg>