<svg xmlns="http://www.w3.org/2000/svg" width="111.712" height="111.712" viewBox="0 0 111.712 111.712"><defs><style>.a{fill:#309100;}</style></defs><path class="a" d="M59.231,3.375a55.856,55.856,0,1,0,55.856,55.856A55.848,55.848,0,0,0,59.231,3.375Zm28.6,40.415-35.9,36.065H51.9a4.85,4.85,0,0,1-3.115,1.477A4.7,4.7,0,0,1,45.643,79.8L30.6,64.763a1.07,1.07,0,0,1,0-1.531l4.78-4.78a1.038,1.038,0,0,1,1.5,0L48.812,70.376l32.762-33a1.06,1.06,0,0,1,.752-.322h0a.975.975,0,0,1,.752.322l4.7,4.861A1.059,1.059,0,0,1,87.831,43.79Z" transform="translate(-3.375 -3.375)"/></svg>