<svg xmlns="http://www.w3.org/2000/svg" width="39.109" height="30" viewBox="0 0 39.109 30">
  <path id="Icon_zocial-persona" data-name="Icon zocial-persona" d="M16.05,23.559a73.229,73.229,0,0,1-8.108-.275s.317-4.841,2.532-5.71,2.757-.748,3.524-1.212l.057-.032v-1.3a6,6,0,0,1-1.668-2.734,2.162,2.162,0,0,1-.631-1.476,2.01,2.01,0,0,1,.307-1.05c.131-2.729,1.867-4.535,3.991-4.535s3.861,1.806,3.991,4.535a2,2,0,0,1,.307,1.05,2.162,2.162,0,0,1-.631,1.476,5.989,5.989,0,0,1-1.668,2.734v1.3c.019.01.038.021.057.032.77.464,1.311.34,3.526,1.212s2.53,5.71,2.53,5.71a73.613,73.613,0,0,1-8.119.275M26.246-.035H1.422A1.428,1.428,0,0,0-.006,1.394V28.538a1.427,1.427,0,0,0,1.429,1.427H26.246l12.857-15-12.857-15Z" transform="translate(0.006 0.035)" fill="#ffd072"/>
</svg>
