<svg xmlns="http://www.w3.org/2000/svg" width="18.824" height="19.608" viewBox="0 0 18.824 19.608">
  <path id="Icon_material-add-shopping-cart" data-name="Icon material-add-shopping-cart" d="M10.837,8.97H12.7v-2.8h2.8V4.3H12.7V1.5H10.837V4.3h-2.8V6.169h2.8ZM7.1,17.373A1.867,1.867,0,1,0,8.97,19.241,1.865,1.865,0,0,0,7.1,17.373Zm9.337,0a1.867,1.867,0,1,0,1.867,1.867A1.865,1.865,0,0,0,16.44,17.373ZM7.261,14.339l.028-.112.84-1.522h6.956a1.859,1.859,0,0,0,1.634-.962l3.6-6.545L18.7,4.3H18.69L17.663,6.169l-2.577,4.669H8.531l-.121-.252L6.318,6.169,5.431,4.3,4.553,2.434H1.5V4.3H3.367l3.361,7.087L5.468,13.676a1.805,1.805,0,0,0-.233.9A1.873,1.873,0,0,0,7.1,16.44h11.2V14.572H7.495A.237.237,0,0,1,7.261,14.339Z" transform="translate(-1.5 -1.5)" fill="#242424"/>
</svg>
