<svg id="Icon_ionic-ios-cart" data-name="Icon ionic-ios-cart" xmlns="http://www.w3.org/2000/svg" width="21.123" height="19.511" viewBox="0 0 21.123 19.511">
  <path id="Path_1" data-name="Path 1" d="M12,29.344a1.219,1.219,0,1,1-1.219-1.219A1.219,1.219,0,0,1,12,29.344Z" transform="translate(-5.098 -11.053)" fill="#242424"/>
  <path id="Path_2" data-name="Path 2" d="M27.786,29.344a1.219,1.219,0,1,1-1.219-1.219,1.219,1.219,0,0,1,1.219,1.219Z" transform="translate(-9.479 -11.053)" fill="#242424"/>
  <path id="Path_3" data-name="Path 3" d="M24.5,7.962a.3.3,0,0,0-.264-.213L7.689,6.149a.509.509,0,0,1-.381-.239,5.172,5.172,0,0,0-.62-.945C6.3,4.488,5.561,4.5,4.21,4.493a.74.74,0,0,0-.828.716.726.726,0,0,0,.792.716,6.749,6.749,0,0,1,1.321.1c.239.071.432.462.5.8A.019.019,0,0,0,6,6.84c.01.061.1.518.1.523L8.136,18.111a3.95,3.95,0,0,0,.737,1.813,2.027,2.027,0,0,0,1.671.823H22.562a.722.722,0,0,0,.731-.681.708.708,0,0,0-.711-.742H10.534a.59.59,0,0,1-.422-.142,2.279,2.279,0,0,1-.584-1.321l-.218-1.2a.028.028,0,0,1,.02-.03l14.106-2.387a.3.3,0,0,0,.249-.264L24.5,8.094A.29.29,0,0,0,24.5,7.962Z" transform="translate(-3.382 -4.493)" fill="#242424"/>
</svg>
