<svg xmlns="http://www.w3.org/2000/svg" width="23.875" height="23.875" viewBox="0 0 23.875 23.875">
  <path id="Icon_awesome-registered" data-name="Icon awesome-registered" d="M13.913,10.164a1.224,1.224,0,0,1-1.369,1.369H11.107V8.83h1.125c1.38,0,1.681.422,1.681,1.334ZM24.438,12.5A11.938,11.938,0,1,1,12.5.563,11.937,11.937,0,0,1,24.438,12.5ZM17.67,17.526c-2.249-4.083-2.084-3.785-2.152-3.9a4.214,4.214,0,0,0,1.826-3.585c0-2.611-1.516-4.3-5.078-4.3h-3.4A1.155,1.155,0,0,0,7.71,6.9V18.084a1.155,1.155,0,0,0,1.155,1.155H9.952a1.155,1.155,0,0,0,1.155-1.155v-3.45h1.23l2.124,3.992a1.155,1.155,0,0,0,1.02.613h1.178a1.155,1.155,0,0,0,1.012-1.713Z" transform="translate(-0.563 -0.563)"/>
</svg>
