<svg xmlns="http://www.w3.org/2000/svg" width="26" height="24.395" viewBox="0 0 26 24.395">
  <g id="promotion-icon" transform="translate(-776.5 -60.311)">
    <path id="Subtraction_1" data-name="Subtraction 1" d="M-2173.018,2030.395h0l-2.233-3.705-4.267-.956.4-4.3-2.884-3.24,2.884-3.252-.4-4.29,4.267-.944,2.234-3.705,4.018,1.7,4.018-1.7,2.234,3.705,4.266.957-.4,4.289,2.884,3.241-2.884,3.24.4,4.289-4.266.957-2.234,3.706-4.018-1.7-4.017,1.713Zm8.114-13.1c-1.789,0-2.7,1.2-2.7,3.57a4.368,4.368,0,0,0,.7,2.668,2.362,2.362,0,0,0,1.992.926,2.428,2.428,0,0,0,2.04-.9,4.387,4.387,0,0,0,.695-2.691,4.308,4.308,0,0,0-.707-2.645A2.409,2.409,0,0,0-2164.9,2017.29Zm-1.766-4.4h0l-6.336,11.422h1.876l6.336-11.422Zm-6.234-.164c-1.788,0-2.695,1.2-2.695,3.57a4.384,4.384,0,0,0,.7,2.676,2.363,2.363,0,0,0,1.992.926,2.426,2.426,0,0,0,2.039-.9,4.4,4.4,0,0,0,.7-2.7,4.3,4.3,0,0,0-.708-2.644A2.408,2.408,0,0,0-2172.9,2012.727Zm8.016,10.117c-.26,0-.451-.164-.567-.488a4.692,4.692,0,0,1-.176-1.48,4.613,4.613,0,0,1,.176-1.472c.116-.319.307-.481.567-.481.5,0,.75.657.75,1.953S-2164.39,2022.844-2164.887,2022.844Zm-8-4.562c-.259,0-.449-.164-.567-.489a4.685,4.685,0,0,1-.176-1.48,4.613,4.613,0,0,1,.176-1.472c.117-.319.308-.481.567-.481.5,0,.75.657.75,1.953S-2172.39,2018.281-2172.887,2018.281Z" transform="translate(2958.5 -1945.689)" fill="#ffd072"/>
  </g>
</svg>
