<svg xmlns="http://www.w3.org/2000/svg" width="18" height="20" fill="none" viewBox="0 0 18 20"><path fill="#393A39" d="M8 17.425v-6.85L2 7.1v6.85l6 3.475Zm2 0 6-3.475V7.1l-6 3.475v6.85Zm-2 2.3L1 15.7a1.948 1.948 0 0 1-1-1.725v-7.95A1.948 1.948 0 0 1 1 4.3L8 .275C8.317.092 8.65 0 9 0s.683.092 1 .275L17 4.3a1.948 1.948 0 0 1 1 1.725v7.95a1.948 1.948 0 0 1-1 1.725l-7 4.025c-.317.183-.65.275-1 .275s-.683-.092-1-.275Zm5-13.2 1.925-1.1L9 2 7.05 3.125l5.95 3.4ZM9 8.85l1.95-1.125L5.025 4.3l-1.95 1.125L9 8.85Z"/></svg>