<svg xmlns="http://www.w3.org/2000/svg" width="34" height="34" fill="none" viewBox="0 0 34 34"><path fill="#393A39" d="M6.035 26.563c1.785-1.247 3.556-2.203 5.313-2.87 1.756-.665 3.64-.998 5.652-.998s3.903.333 5.674.999c1.77.666 3.549 1.622 5.334 2.869 1.246-1.53 2.132-3.075 2.656-4.633.524-1.558.786-3.202.786-4.93 0-4.108-1.381-7.544-4.144-10.306C24.544 3.93 21.108 2.55 17 2.55c-4.108 0-7.544 1.381-10.306 4.144C3.93 9.456 2.55 12.892 2.55 17c0 1.728.27 3.372.808 4.93.538 1.558 1.43 3.102 2.677 4.633Zm10.957-8.288c-1.638 0-3.017-.562-4.136-1.687-1.119-1.124-1.678-2.505-1.678-4.143 0-1.639.562-3.017 1.686-4.136 1.125-1.12 2.506-1.679 4.144-1.679 1.638 0 3.017.562 4.136 1.687 1.119 1.124 1.679 2.505 1.679 4.143s-.563 3.017-1.687 4.136c-1.125 1.12-2.506 1.679-4.144 1.679ZM17.02 34c-2.337 0-4.54-.446-6.607-1.339a17.244 17.244 0 0 1-5.42-3.655 17.275 17.275 0 0 1-3.654-5.409C.446 21.536 0 19.333 0 16.99c0-2.344.446-4.544 1.339-6.598a17.311 17.311 0 0 1 3.655-5.397 17.274 17.274 0 0 1 5.409-3.655C12.464.446 14.667 0 17.01 0c2.344 0 4.544.446 6.598 1.339a17.312 17.312 0 0 1 5.397 3.655 17.308 17.308 0 0 1 3.655 5.399C33.554 12.448 34 14.643 34 16.98c0 2.337-.446 4.54-1.339 6.607a17.245 17.245 0 0 1-3.655 5.42 17.308 17.308 0 0 1-5.399 3.654C21.552 33.554 19.357 34 17.02 34ZM17 31.45c1.558 0 3.081-.227 4.569-.68 1.487-.453 2.954-1.247 4.399-2.38-1.445-1.02-2.919-1.8-4.42-2.338A13.39 13.39 0 0 0 17 25.245c-1.53 0-3.046.27-4.547.807-1.502.539-2.976 1.318-4.42 2.338 1.444 1.133 2.91 1.927 4.398 2.38 1.488.453 3.01.68 4.569.68Zm0-15.725c.963 0 1.75-.305 2.359-.914s.913-1.395.913-2.358c0-.964-.304-1.75-.913-2.36-.61-.608-1.396-.913-2.359-.913-.963 0-1.75.305-2.359.914s-.914 1.395-.914 2.359c0 .963.305 1.75.914 2.358.61.61 1.396.914 2.359.914Z"/></svg>