<svg xmlns="http://www.w3.org/2000/svg" width="30" height="30" fill="none" viewBox="0 0 30 30"><path fill="#393A39" d="M8.853 30a2.585 2.585 0 0 1-1.907-.796 2.624 2.624 0 0 1-.788-1.915c0-.746.265-1.382.796-1.907a2.624 2.624 0 0 1 1.915-.789c.746 0 1.381.266 1.907.797.526.53.789 1.169.789 1.915 0 .745-.266 1.38-.797 1.907A2.624 2.624 0 0 1 8.853 30Zm15.019 0a2.585 2.585 0 0 1-1.907-.796 2.624 2.624 0 0 1-.788-1.915c0-.746.265-1.382.796-1.907a2.624 2.624 0 0 1 1.915-.789c.745 0 1.381.266 1.907.797.525.53.788 1.169.788 1.915 0 .745-.265 1.38-.796 1.907a2.624 2.624 0 0 1-1.915.788ZM6.909 5.219l4.13 8.56h10.813l4.694-8.56H6.909ZM5.782 2.966H27.9c.575 0 1.012.263 1.312.789.3.525.3 1.051 0 1.577l-5.07 9.124A3.353 3.353 0 0 1 23.07 15.6c-.44.288-.92.431-1.443.431H10.25l-2.102 3.905h18.435v2.253H8.486c-1.052 0-1.809-.35-2.272-1.051-.463-.701-.457-1.49.019-2.366l2.403-4.43-5.707-12.09H0V0h4.393l1.39 2.966Z"/></svg>