<svg xmlns="http://www.w3.org/2000/svg" width="20" height="20" fill="none" viewBox="0 0 20 20"><path fill="#CE0E2D" fill-rule="evenodd" d="M10.86 20c.424 0 .786-.15 1.085-.45l7.581-7.59c.316-.316.474-.687.474-1.111 0-.425-.158-.795-.474-1.111L10.224.424a1.28 1.28 0 0 0-.548-.337A2.126 2.126 0 0 0 9.077 0h-7.58C1.063 0 .706.141.423.424.14.707 0 1.065 0 1.498v7.59c0 .2.03.392.087.575.058.183.17.358.337.524l9.352 9.364c.299.3.66.449 1.084.449ZM4.115 5.393c.349 0 .652-.129.91-.387s.386-.562.386-.911c0-.35-.128-.653-.386-.911a1.245 1.245 0 0 0-.91-.387c-.35 0-.653.129-.91.387a1.248 1.248 0 0 0-.387.91c0 .35.129.654.386.912.258.258.562.387.91.387Z" clip-rule="evenodd"/></svg>