<svg id="e109qqa12gp5c1" xmlns="http://www.w3.org/2000/svg" xmlns:xlink="http://www.w3.org/1999/xlink" viewBox="0 0 150 100" shape-rendering="geometricPrecision" text-rendering="geometricPrecision"><style><![CDATA[#e109qqa12gp5c4 {animation: e109qqa12gp5c4_s_do 1000ms linear infinite normal forwards}@keyframes e109qqa12gp5c4_s_do { 0% {stroke-dashoffset: 196.220000} 100% {stroke-dashoffset: 0} }]]></style><g id="e109qqa12gp5c2"><path id="e109qqa12gp5c3" d="" fill="rgb(206,14,45)" stroke="none" stroke-width="1"/><path id="e109qqa12gp5c4" d="M46.690000,77.530000C39.120000,70.010000,34.440000,59.640000,34.440000,48.210000C34.440000,25.320000,53.220000,6.690000,76.310000,6.690000C99.400000,6.690000,118.180000,25.310000,118.180000,48.210000C118.180000,59.650000,113.490000,70.010000,105.930000,77.530000" fill="none" stroke="rgb(206,14,45)" stroke-width="4.243800" stroke-linejoin="bevel" stroke-miterlimit="10" stroke-dashoffset="196.220000" stroke-dasharray="196.220000"/><path id="e109qqa12gp5c5" d="M109.880000,53.740000L104.980000,63.530000C104.940000,63.450000,101.920000,57.350000,101.240000,55.950000L87.500000,55.970000L91.130000,48.700000L97.700000,48.730000L92.040000,37.230000L78.840000,63.500000L69.610000,63.490000L74.900000,53C83.240000,50.770000,84.630000,43.070000,84.630000,38.170000C84.630000,36.750000,84.520000,35.460000,84.330000,34.280000L87.900000,27.190000C89.580000,27.200000,93.180000,27.200000,96.210000,27.200000L109.880000,53.740000Z" fill="rgb(0,0,0)" stroke="none" stroke-width="1"/><path id="e109qqa12gp5c6" d="M69.040000,34.790000C71.300000,34.790000,71.490000,35.620000,71.490000,38.410000C71.490000,41.200000,71.300000,42.030000,69.040000,42.030000L61.550000,42.030000L57.880000,49.310000L69.710000,49.140000C79.350000,49.140000,80.130000,42.490000,80.130000,38.180000C80.130000,33.870000,79.360000,27.220000,69.710000,27.220000L50.240000,27.220000L46.570000,34.550000L46.550000,63.490000L55.190000,63.490000L55.190000,34.770000L69.040000,34.790000Z" fill="rgb(0,0,0)" stroke="none" stroke-width="1"/><path id="e109qqa12gp5c7" d="M114.260000,79.670000C113.120000,79.670000,112.190000,78.740000,112.190000,77.600000C112.190000,76.460000,113.120000,75.530000,114.260000,75.530000C115.400000,75.530000,116.330000,76.460000,116.330000,77.600000C116.320000,78.740000,115.400000,79.670000,114.260000,79.670000ZM114.260000,75.830000C113.300000,75.830000,112.520000,76.620000,112.520000,77.600000C112.520000,78.570000,113.300000,79.370000,114.260000,79.370000C115.220000,79.370000,116,78.580000,116,77.600000C116,76.630000,115.210000,75.830000,114.260000,75.830000ZM114.760000,78.730000L114.240000,77.800000L113.900000,77.800000L113.900000,78.730000L113.590000,78.730000L113.590000,76.460000L114.360000,76.460000C114.750000,76.460000,115.070000,76.760000,115.070000,77.140000C115.070000,77.470000,114.860000,77.680000,114.580000,77.770000L115.120000,78.730000L114.760000,78.730000L114.760000,78.730000ZM114.320000,76.750000L113.890000,76.750000L113.890000,77.540000L114.320000,77.540000C114.570000,77.540000,114.750000,77.380000,114.750000,77.150000C114.750000,76.920000,114.570000,76.750000,114.320000,76.750000Z" fill="rgb(0,0,0)" stroke="none" stroke-width="1"/><g id="e109qqa12gp5c8"><g id="e109qqa12gp5c9"><path id="e109qqa12gp5c10" d="M106.590000,92.540000L108.280000,92.540000L106.110000,88.560000L106.440000,88.500000C107.480000,88.330000,108.120000,87.840000,108.120000,85.980000C108.120000,83.970000,107.380000,83.380000,104.830000,83.380000L99.290000,83.400000L99.290000,88.700000L100.970000,91.880000L100.970000,84.570000L105.240000,84.570000C106.200000,84.570000,106.400000,85.150000,106.400000,85.640000L106.400000,86.410000C106.400000,87.010000,106.340000,87.480000,105.530000,87.480000L102.660000,87.480000L102.030000,88.600000L104.290000,88.590000L106.430000,92.490000C106.450000,92.510000,106.460000,92.540000,106.590000,92.540000Z" fill="rgb(0,0,0)" stroke="none" stroke-width="1"/><path id="e109qqa12gp5c11" d="M123.240000,92.530000L129.200000,92.530000C131.580000,92.530000,132.270000,91.970000,132.270000,90.020000C132.270000,88.240000,131.960000,87.690000,130.190000,87.470000L126.030000,86.990000C125.320000,86.910000,124.960000,86.620000,124.960000,85.910000C124.960000,85.170000,125.340000,84.850000,126.050000,84.850000L131.790000,84.850000L131.790000,83.370000L126.180000,83.370000C123.840000,83.370000,123.110000,83.730000,123.110000,85.980000C123.110000,87.870000,123.530000,88.370000,125.190000,88.570000L129.390000,89.100000C130.060000,89.170000,130.410000,89.430000,130.410000,90.090000C130.410000,90.480000,130.270000,91.050000,129.320000,91.050000L123.230000,91.050000L123.240000,92.530000L123.240000,92.530000Z" fill="rgb(0,0,0)" stroke="none" stroke-width="1"/><path id="e109qqa12gp5c12" d="M119.640000,92.530000L121.320000,92.530000L121.320000,83.390000L119.100000,83.380000L115.590000,89.630000L112.080000,83.380000L109.860000,83.390000L109.860000,91.420000L110.490000,92.530000L111.540000,92.530000L111.540000,85.320000L114.870000,91.260000C114.890000,91.300000,114.900000,91.320000,115.020000,91.320000L116.160000,91.320000C116.280000,91.320000,116.290000,91.290000,116.310000,91.260000L119.640000,85.320000L119.640000,92.530000L119.640000,92.530000Z" fill="rgb(0,0,0)" stroke="none" stroke-width="1"/><polygon id="e109qqa12gp5c13" points="79.470000,92.530000 81.150000,92.530000 81.150000,88.560000 85.370000,83.390000 83.440000,83.390000 80.310000,87.320000 77.190000,83.390000 75.260000,83.390000 79.470000,88.560000" fill="rgb(0,0,0)" stroke="none" stroke-width="1"/><path id="e109qqa12gp5c14" d="M70.820000,88.580000L72.960000,92.490000C72.970000,92.510000,72.990000,92.540000,73.110000,92.540000L74.800000,92.540000L72.620000,88.550000L72.960000,88.500000C74.420000,88.290000,74.930000,87.630000,74.930000,85.980000C74.930000,83.970000,74.190000,83.380000,71.640000,83.380000L65.900000,83.400000L65.900000,88.700000L67.580000,91.880000L67.580000,84.570000L72.050000,84.570000C73.010000,84.570000,73.210000,85.150000,73.210000,85.640000L73.210000,86.410000C73.210000,86.900000,73.010000,87.480000,72.050000,87.480000L69.280000,87.480000L68.650000,88.600000L70.820000,88.580000Z" fill="rgb(0,0,0)" stroke="none" stroke-width="1"/><path id="e109qqa12gp5c15" d="M62.970000,90.470000L63.990000,92.480000C64,92.500000,64.020000,92.530000,64.130000,92.530000L65.760000,92.520000L60.940000,83.380000L59.170000,83.380000L56.540000,88.460000L56.540000,91.820000L60.100000,84.790000L62.410000,89.350000L59.410000,89.350000L58.780000,90.470000L62.970000,90.470000Z" fill="rgb(0,0,0)" stroke="none" stroke-width="1"/><path id="e109qqa12gp5c16" d="M52.850000,92.530000L54.530000,92.530000L54.530000,83.390000L52.310000,83.380000L48.800000,89.630000L45.290000,83.380000L43.070000,83.390000L43.070000,92.530000L44.750000,92.530000L44.750000,85.320000L48.080000,91.280000C48.100000,91.310000,48.110000,91.340000,48.230000,91.340000L49.370000,91.340000C49.490000,91.340000,49.510000,91.310000,49.520000,91.290000L52.850000,85.330000L52.850000,92.530000Z" fill="rgb(0,0,0)" stroke="none" stroke-width="1"/><rect id="e109qqa12gp5c17" width="1.680000" height="9.140000" rx="0" ry="0" transform="matrix(1 0 0 1 39.30000000000000 83.39000000000000)" fill="rgb(0,0,0)" stroke="none" stroke-width="1"/><path id="e109qqa12gp5c18" d="M28.280000,92.530000L29.960000,92.530000L29.960000,84.560000L34.430000,84.560000C35.390000,84.560000,35.590000,85.140000,35.590000,85.630000L35.590000,86.400000C35.590000,86.890000,35.390000,87.470000,34.430000,87.470000L31.660000,87.470000L31.030000,88.590000L33.180000,88.580000L35.320000,92.490000C35.330000,92.510000,35.350000,92.540000,35.470000,92.540000L37.160000,92.540000L34.980000,88.550000L35.320000,88.500000C36.780000,88.290000,37.290000,87.630000,37.290000,85.980000C37.290000,83.970000,36.550000,83.380000,34,83.380000L28.260000,83.400000L28.280000,92.530000L28.280000,92.530000Z" fill="rgb(0,0,0)" stroke="none" stroke-width="1"/><path id="e109qqa12gp5c19" d="M17.880000,92.530000L19.560000,92.530000L19.560000,84.560000L23.940000,84.560000C24.900000,84.560000,25.100000,85.140000,25.100000,85.630000L25.100000,86.400000C25.100000,86.890000,24.900000,87.470000,23.940000,87.470000L21.260000,87.470000L20.630000,88.590000L23.520000,88.580000C26.070000,88.580000,26.810000,88,26.810000,85.980000C26.810000,83.970000,26.070000,83.380000,23.520000,83.380000L17.880000,83.400000L17.880000,92.530000Z" fill="rgb(0,0,0)" stroke="none" stroke-width="1"/><path id="e109qqa12gp5c20" d="M96.360000,90.450000L97.380000,92.460000C97.390000,92.480000,97.410000,92.510000,97.520000,92.510000L99.150000,92.500000L94.330000,83.360000L92.560000,83.360000L87.770000,92.500000L89.400000,92.510000C89.520000,92.510000,89.530000,92.480000,89.540000,92.460000L89.790000,91.970000L93.490000,84.780000L95.800000,89.340000L92.800000,89.340000L92.170000,90.460000L96.360000,90.450000Z" fill="rgb(0,0,0)" stroke="none" stroke-width="1"/></g><g id="e109qqa12gp5c21"><path id="e109qqa12gp5c22" d="M134.240000,92.540000C133.860000,92.540000,133.550000,92.230000,133.550000,91.850000C133.550000,91.470000,133.860000,91.160000,134.240000,91.160000C134.620000,91.160000,134.930000,91.470000,134.930000,91.850000C134.940000,92.230000,134.620000,92.540000,134.240000,92.540000ZM134.240000,91.260000C133.920000,91.260000,133.660000,91.530000,133.660000,91.850000C133.660000,92.170000,133.920000,92.440000,134.240000,92.440000C134.560000,92.440000,134.820000,92.170000,134.820000,91.850000C134.820000,91.530000,134.560000,91.260000,134.240000,91.260000ZM134.410000,92.230000L134.240000,91.920000L134.130000,91.920000L134.130000,92.230000L134.020000,92.230000L134.020000,91.470000L134.280000,91.470000C134.410000,91.470000,134.520000,91.570000,134.520000,91.700000C134.520000,91.810000,134.450000,91.880000,134.360000,91.910000L134.540000,92.230000L134.410000,92.230000ZM134.260000,91.560000L134.120000,91.560000L134.120000,91.830000L134.260000,91.830000C134.340000,91.830000,134.400000,91.770000,134.400000,91.700000C134.400000,91.630000,134.350000,91.560000,134.260000,91.560000Z" fill="rgb(0,0,0)" stroke="none" stroke-width="1"/></g></g></g></svg>