<svg xmlns="http://www.w3.org/2000/svg" width="262" height="48" fill="none" viewBox="0 0 262 48"><path fill="#CE0E2D" d="m94.441 48 4.212-8.42H256.65v8.392L94.441 48Z"/><path fill="#393A39" d="M213.575 31.204h2.878l-3.715-6.802.573-.097c1.767-.298 2.863-1.123 2.863-4.308 0-3.445-1.259-4.438-5.61-4.438l-9.46.023v9.044l2.871 5.446V17.567h7.296c1.643 0 1.987.992 1.987 1.815v1.313c0 1.035-.109 1.815-1.477 1.815h-4.897l-1.065 1.912h3.85l3.648 6.673c.024.06.05.109.258.109ZM242.025 31.19h10.186c4.069 0 5.24-.962 5.24-4.293 0-3.05-.53-3.987-3.545-4.362l-7.1-.825c-1.209-.128-1.814-.642-1.814-1.852 0-1.273.661-1.803 1.86-1.803h9.797v-2.528h-9.577c-3.998 0-5.24.605-5.24 4.462 0 3.227.711 4.083 3.547 4.438l7.179.903c1.151.117 1.737.571 1.737 1.697 0 .67-.242 1.635-1.86 1.635H242.03l-.005 2.528ZM235.877 31.19h2.87V15.564h-3.793l-6.006 10.676-5.996-10.69h-3.795v13.726l1.078 1.9h1.792V18.858l5.685 10.155c.037.065.053.093.258.093h1.955c.202 0 .23-.04.262-.099l5.682-10.15.008 12.333ZM167.267 31.19h2.87v-6.782l7.195-8.849-3.293.007-5.337 6.722-5.337-6.722-3.293-.007 7.195 8.85v6.78ZM152.482 24.425l3.65 6.676c.016.032.043.083.252.083h2.882l-3.722-6.814.588-.087c2.479-.355 3.364-1.472 3.364-4.296 0-3.445-1.26-4.437-5.611-4.437l-9.799.022v9.054l2.87 5.446V17.567h7.637c1.642 0 1.987.99 1.987 1.815v1.313c0 .833-.345 1.815-1.987 1.815h-4.726l-1.067 1.91 3.682.005ZM139.078 27.67l1.74 3.429c.016.03.04.079.247.08h2.782l-8.235-15.613h-3.023l-4.503 8.673v5.738l6.085-12.007 3.946 7.798h-5.133l-1.066 1.91 7.16-.008ZM121.796 31.19h2.87V15.564h-3.795l-5.993 10.676-6-10.69h-3.793v15.626h2.87v-12.32l5.685 10.18c.022.044.049.092.256.092h1.955c.202 0 .238-.05.254-.082l5.691-10.19V31.19ZM98.638 31.19h2.87V15.558l-2.87.006V31.19ZM79.82 31.19h2.87V17.567h7.636c1.643 0 1.988.99 1.988 1.815v1.313c0 .833-.345 1.815-1.987 1.815H85.6l-1.066 1.91h3.682l3.652 6.68c.016.033.04.08.252.08H95l-3.722-6.804.588-.087c2.483-.36 3.364-1.488 3.364-4.306 0-3.445-1.26-4.438-5.61-4.438l-9.8.023V31.19ZM62.048 31.19h2.87V17.567h7.48c1.642 0 1.987.99 1.987 1.815v1.315c0 .831-.345 1.815-1.988 1.815h-4.569l-1.066 1.91 4.928-.012c4.353 0 5.61-.996 5.61-4.437 0-3.441-1.257-4.438-5.61-4.438l-9.642.023V31.19ZM196.115 27.652l1.742 3.429c.014.03.04.079.247.08h2.782l-8.235-15.624h-3.023l-8.185 15.62h2.786c.201 0 .229-.05.248-.082l.421-.833 6.31-12.304 3.942 7.792h-5.127l-1.066 1.922h7.158ZM260.815 31.21a1.185 1.185 0 0 1-1.166-1.419 1.183 1.183 0 0 1 .932-.934A1.186 1.186 0 0 1 262 30.022a1.19 1.19 0 0 1-1.185 1.188Zm0-2.2a1.01 1.01 0 1 0 .001 2.018 1.01 1.01 0 0 0-.001-2.019Zm.288 1.661-.298-.53h-.202v.537h-.179v-1.302h.441a.405.405 0 0 1 .404.39.364.364 0 0 1-.279.359l.313.552-.2-.006Zm-.252-1.14h-.244v.457h.244a.227.227 0 1 0 0-.456ZM46.96 43.206a1.186 1.186 0 0 1-1.167-1.42 1.188 1.188 0 0 1 2.15-.429 1.188 1.188 0 0 1-.984 1.849Zm0-2.201a1.007 1.007 0 0 0-.714 1.721 1.007 1.007 0 1 0 1.099-1.644 1.006 1.006 0 0 0-.386-.077Zm.287 1.662-.298-.53h-.201v.53h-.18v-1.3h.442a.403.403 0 0 1 .403.39.361.361 0 0 1-.279.36l.313.552-.2-.002Zm-.252-1.14h-.237v.456H47a.228.228 0 0 0 0-.456h-.006Z"/><path fill="#393A39" d="M213.575 31.204h2.878l-3.715-6.802.573-.097c1.767-.298 2.863-1.123 2.863-4.308 0-3.445-1.259-4.438-5.61-4.438l-9.46.023v9.044l2.871 5.446V17.567h7.296c1.643 0 1.987.992 1.987 1.815v1.313c0 1.035-.109 1.815-1.477 1.815h-4.897l-1.065 1.912h3.85l3.648 6.673c.024.06.05.109.258.109ZM242.025 31.19h10.186c4.069 0 5.24-.962 5.24-4.293 0-3.05-.53-3.987-3.545-4.362l-7.1-.825c-1.209-.128-1.814-.642-1.814-1.852 0-1.273.661-1.803 1.86-1.803h9.797v-2.528h-9.577c-3.998 0-5.24.605-5.24 4.462 0 3.227.711 4.083 3.547 4.438l7.179.903c1.151.117 1.737.571 1.737 1.697 0 .67-.242 1.635-1.86 1.635H242.03l-.005 2.528ZM235.877 31.19h2.87V15.564h-3.793l-6.006 10.676-5.996-10.69h-3.795v13.726l1.078 1.9h1.792V18.858l5.685 10.155c.037.065.053.093.258.093h1.955c.202 0 .23-.04.262-.099l5.682-10.15.008 12.333ZM167.267 31.19h2.87v-6.782l7.195-8.849-3.293.007-5.337 6.722-5.337-6.722-3.293-.007 7.195 8.85v6.78ZM152.482 24.425l3.65 6.676c.016.032.043.083.252.083h2.882l-3.722-6.814.588-.087c2.479-.355 3.364-1.472 3.364-4.296 0-3.445-1.26-4.437-5.611-4.437l-9.799.022v9.054l2.87 5.446V17.567h7.637c1.642 0 1.987.99 1.987 1.815v1.313c0 .833-.345 1.815-1.987 1.815h-4.726l-1.067 1.91 3.682.005ZM139.078 27.67l1.74 3.429c.016.03.04.079.247.08h2.782l-8.235-15.613h-3.023l-4.503 8.673v5.738l6.085-12.007 3.946 7.798h-5.133l-1.066 1.91 7.16-.008ZM121.796 31.19h2.87V15.564h-3.795l-5.993 10.676-6-10.69h-3.793v15.626h2.87v-12.32l5.685 10.18c.022.044.049.092.256.092h1.955c.202 0 .238-.05.254-.082l5.691-10.19V31.19ZM98.638 31.19h2.87V15.558l-2.87.006V31.19ZM79.82 31.19h2.87V17.567h7.636c1.643 0 1.988.99 1.988 1.815v1.313c0 .833-.345 1.815-1.987 1.815H85.6l-1.066 1.91h3.682l3.652 6.68c.016.033.04.08.252.08H95l-3.722-6.804.588-.087c2.483-.36 3.364-1.488 3.364-4.306 0-3.445-1.26-4.438-5.61-4.438l-9.8.023V31.19ZM62.048 31.19h2.87V17.567h7.48c1.642 0 1.987.99 1.987 1.815v1.315c0 .831-.345 1.815-1.988 1.815h-4.569l-1.066 1.91 4.928-.012c4.353 0 5.61-.996 5.61-4.437 0-3.441-1.257-4.438-5.61-4.438l-9.642.023V31.19ZM196.115 27.652l1.742 3.429c.014.03.04.079.247.08h2.782l-8.235-15.624h-3.023l-8.185 15.62h2.786c.201 0 .229-.05.248-.082l.421-.833 6.31-12.304 3.942 7.792h-5.127l-1.066 1.922h7.158ZM260.815 31.21a1.185 1.185 0 0 1-1.166-1.419 1.183 1.183 0 0 1 .932-.934A1.186 1.186 0 0 1 262 30.022a1.19 1.19 0 0 1-1.185 1.188Zm0-2.2a1.01 1.01 0 1 0 .001 2.018 1.01 1.01 0 0 0-.001-2.019Zm.288 1.661-.298-.53h-.202v.537h-.179v-1.302h.441a.405.405 0 0 1 .404.39.364.364 0 0 1-.279.359l.313.552-.2-.006Zm-.252-1.14h-.244v.457h.244a.227.227 0 1 0 0-.456ZM46.96 43.206a1.186 1.186 0 0 1-1.167-1.42 1.188 1.188 0 0 1 2.15-.429 1.188 1.188 0 0 1-.984 1.849Zm0-2.201a1.007 1.007 0 0 0-.714 1.721 1.007 1.007 0 1 0 1.099-1.644 1.006 1.006 0 0 0-.386-.077Zm.287 1.662-.298-.53h-.201v.53h-.18v-1.3h.442a.403.403 0 0 1 .403.39.361.361 0 0 1-.279.36l.313.552-.2-.002Zm-.252-1.14h-.237v.456H47a.228.228 0 0 0 0-.456h-.006ZM44.448 28.34l-2.807 5.613c-.023-.042-1.752-3.542-2.143-4.343h-7.86l2.082-4.167 3.759.016-3.245-6.591-7.554 15.061h-5.286l3.023-6.01c4.772-1.278 5.573-5.693 5.573-8.499a13.704 13.704 0 0 0-.174-2.219l2.046-4.072h4.758l7.828 15.21Z"/><path fill="#393A39" d="M21.062 17.48c1.29 0 1.41.476 1.41 2.075 0 1.6-.11 2.076-1.41 2.076H16.77l-2.098 4.175 6.776-.1c5.522 0 5.965-3.813 5.965-6.282s-.443-6.28-5.965-6.28H10.298l-2.1 4.203-.01 16.586h4.947V17.466l7.927.014Z"/><path fill="#CE0E2D" d="M9.302 41.281a22.625 22.625 0 0 1-4.89-24.636A22.603 22.603 0 0 1 12.73 6.503a22.575 22.575 0 0 1 25.096 0 22.604 22.604 0 0 1 8.32 10.144 22.625 22.625 0 0 1-4.891 24.635l1.902 1.904a25.32 25.32 0 0 0 5.474-27.57 25.296 25.296 0 0 0-9.31-11.352 25.264 25.264 0 0 0-28.086 0 25.296 25.296 0 0 0-9.31 11.352 25.32 25.32 0 0 0 5.473 27.57l1.903-1.904Z"/></svg>