<svg xmlns="http://www.w3.org/2000/svg" viewBox="0 0 1300 237.88"><defs><style>.cls-1{fill:#ce0e2d;}.cls-2{fill:#fff;}</style></defs><g id="Layer_2" data-name="Layer 2"><g id="PA_Corp_Ex_CW" data-name="PA Corp Ex CW"><polygon class="cls-1" points="468.6 237.88 489.5 196.14 1273.45 196.14 1273.45 237.74 468.6 237.88"/><path class="cls-2" d="M1059.72,154.61H1074l-18.43-33.72,2.84-.48c8.77-1.48,14.21-5.57,14.21-21.36,0-17.08-6.25-22-27.84-22l-46.94.11V122l14.25,27V87l36.2,0c8.15,0,9.86,4.92,9.86,9v6.51c0,5.13-.54,9-7.33,9h-24.3l-5.28,9.48,19.1,0,18.1,33.08C1058.56,154.37,1058.69,154.61,1059.72,154.61Z"/><path class="cls-2" d="M1200.89,154.54h50.54c20.19,0,26-4.77,26-21.28,0-15.12-2.63-19.77-17.59-21.63l-35.23-4.09c-6-.63-9-3.18-9-9.18,0-6.31,3.28-8.94,9.23-8.94h48.61V76.89h-47.52c-19.84,0-26,3-26,22.12,0,16,3.53,20.24,17.6,22l35.62,4.48c5.71.58,8.62,2.83,8.62,8.41,0,3.32-1.2,8.11-9.23,8.11h-51.63Z"/><path class="cls-2" d="M1170.38,154.54h14.24V77.07l-18.82,0L1136,130l-29.75-53-18.83,0v68.05l5.35,9.42h8.89V93.4l28.21,50.35c.18.32.26.46,1.28.46h9.7c1,0,1.14-.2,1.3-.49l28.19-50.32Z"/><polygon class="cls-2" points="829.95 154.54 844.19 154.54 844.19 120.92 879.89 77.05 863.55 77.08 837.07 110.41 810.59 77.08 794.25 77.05 829.95 120.92 829.95 154.54"/><path class="cls-2" d="M756.59,121l18.11,33.1c.08.16.21.41,1.25.41h14.3l-18.47-33.78,2.92-.43C787,118.54,791.39,113,791.39,99c0-17.08-6.25-22-27.84-22l-48.62.11V122l14.24,27V87l37.89,0c8.15,0,9.86,4.91,9.86,9v6.51c0,4.13-1.71,9-9.86,9H743.61l-5.29,9.47Z"/><path class="cls-2" d="M690.08,137.09l8.63,17c.08.15.2.39,1.23.4l13.8,0L672.88,77.08h-15l-22.34,43v28.45L665.73,89l19.58,38.66H659.84l-5.29,9.47Z"/><path class="cls-2" d="M604.33,154.54h14.24V77.07l-18.83,0L570,130,540.23,77l-18.82,0v77.47h14.24V93.39l28.21,50.47c.11.22.24.46,1.27.46h9.7c1,0,1.18-.25,1.26-.41l28.24-50.52Z"/><polygon class="cls-2" points="489.42 154.54 503.66 154.54 503.66 77.04 489.42 77.07 489.42 154.54"/><path class="cls-2" d="M396.05,154.54h14.24V87l37.89,0c8.15,0,9.86,4.91,9.86,9v6.51c0,4.13-1.71,9-9.86,9H424.73l-5.29,9.47,18.27,0,18.12,33.11c.08.17.2.4,1.25.4h14.29L452.9,120.76l2.92-.43c12.32-1.79,16.69-7.38,16.69-21.35,0-17.08-6.25-22-27.84-22l-48.62.11Z"/><path class="cls-2" d="M307.87,154.54h14.24V87l37.11,0c8.15,0,9.86,4.91,9.86,9v6.52c0,4.12-1.71,9-9.86,9H336.55l-5.29,9.47,24.45-.06c21.6,0,27.84-4.94,27.84-22s-6.24-22-27.84-22l-47.84.11Z"/><path class="cls-2" d="M973.09,137,981.73,154c.07.15.2.39,1.23.4l13.8,0L955.9,76.94h-15l-40.61,77.44,13.82,0c1,0,1.14-.25,1.23-.41l2.09-4.13,31.31-61,19.56,38.63H942.86L937.57,137Z"/><path class="cls-2" d="M1294.12,154.64a5.89,5.89,0,1,1,5.88-5.89A5.89,5.89,0,0,1,1294.12,154.64Zm0-10.91a5,5,0,1,0,5,5A5,5,0,0,0,1294.12,143.73Zm1.43,8.24-1.48-2.63h-1V152h-.89v-6.45h2.19a2,2,0,0,1,2,1.93,1.79,1.79,0,0,1-1.38,1.78l1.55,2.74Zm-1.25-5.65h-1.21v2.26h1.21a1.13,1.13,0,1,0,0-2.26Z"/><path class="cls-2" d="M233,214.11a5.89,5.89,0,1,1,5.88-5.89A5.89,5.89,0,0,1,233,214.11Zm0-10.91a5,5,0,1,0,5,5A5,5,0,0,0,233,203.2Zm1.43,8.24-1.48-2.63h-1v2.63h-.89V205h2.19a2,2,0,0,1,2,1.93,1.79,1.79,0,0,1-1.38,1.78l1.55,2.74Zm-1.25-5.65H232v2.26h1.21a1.13,1.13,0,1,0,0-2.26Z"/><path class="cls-2" d="M1059.72,154.61H1074l-18.43-33.72,2.84-.48c8.77-1.48,14.21-5.57,14.21-21.36,0-17.08-6.25-22-27.84-22l-46.94.11V122l14.25,27V87l36.2,0c8.15,0,9.86,4.92,9.86,9v6.51c0,5.13-.54,9-7.33,9h-24.3l-5.28,9.48,19.1,0,18.1,33.08C1058.56,154.37,1058.69,154.61,1059.72,154.61Z"/><path class="cls-2" d="M1200.89,154.54h50.54c20.19,0,26-4.77,26-21.28,0-15.12-2.63-19.77-17.59-21.63l-35.23-4.09c-6-.63-9-3.18-9-9.18,0-6.31,3.28-8.94,9.23-8.94h48.61V76.89h-47.52c-19.84,0-26,3-26,22.12,0,16,3.53,20.24,17.6,22l35.62,4.48c5.71.58,8.62,2.83,8.62,8.41,0,3.32-1.2,8.11-9.23,8.11h-51.63Z"/><path class="cls-2" d="M1170.38,154.54h14.24V77.07l-18.82,0L1136,130l-29.75-53-18.83,0v68.05l5.35,9.42h8.89V93.4l28.21,50.35c.18.32.26.46,1.28.46h9.7c1,0,1.14-.2,1.3-.49l28.19-50.32Z"/><polygon class="cls-2" points="829.95 154.54 844.19 154.54 844.19 120.92 879.89 77.05 863.55 77.08 837.07 110.41 810.59 77.08 794.25 77.05 829.95 120.92 829.95 154.54"/><path class="cls-2" d="M756.59,121l18.11,33.1c.08.16.21.41,1.25.41h14.3l-18.47-33.78,2.92-.43C787,118.54,791.39,113,791.39,99c0-17.08-6.25-22-27.84-22l-48.62.11V122l14.24,27V87l37.89,0c8.15,0,9.86,4.91,9.86,9v6.51c0,4.13-1.71,9-9.86,9H743.61l-5.29,9.47Z"/><path class="cls-2" d="M690.08,137.09l8.63,17c.08.15.2.39,1.23.4l13.8,0L672.88,77.08h-15l-22.34,43v28.45L665.73,89l19.58,38.66H659.84l-5.29,9.47Z"/><path class="cls-2" d="M604.33,154.54h14.24V77.07l-18.83,0L570,130,540.23,77l-18.82,0v77.47h14.24V93.39l28.21,50.47c.11.22.24.46,1.27.46h9.7c1,0,1.18-.25,1.26-.41l28.24-50.52Z"/><polygon class="cls-2" points="489.42 154.54 503.66 154.54 503.66 77.04 489.42 77.07 489.42 154.54"/><path class="cls-2" d="M396.05,154.54h14.24V87l37.89,0c8.15,0,9.86,4.91,9.86,9v6.51c0,4.13-1.71,9-9.86,9H424.73l-5.29,9.47,18.27,0,18.12,33.11c.08.17.2.4,1.25.4h14.29L452.9,120.76l2.92-.43c12.32-1.79,16.69-7.38,16.69-21.35,0-17.08-6.25-22-27.84-22l-48.62.11Z"/><path class="cls-2" d="M307.87,154.54h14.24V87l37.11,0c8.15,0,9.86,4.91,9.86,9v6.52c0,4.12-1.71,9-9.86,9H336.55l-5.29,9.47,24.45-.06c21.6,0,27.84-4.94,27.84-22s-6.24-22-27.84-22l-47.84.11Z"/><path class="cls-2" d="M973.09,137,981.73,154c.07.15.2.39,1.23.4l13.8,0L955.9,76.94h-15l-40.61,77.44,13.82,0c1,0,1.14-.25,1.23-.41l2.09-4.13,31.31-61,19.56,38.63H942.86L937.57,137Z"/><path class="cls-2" d="M1294.12,154.64a5.89,5.89,0,1,1,5.88-5.89A5.89,5.89,0,0,1,1294.12,154.64Zm0-10.91a5,5,0,1,0,5,5A5,5,0,0,0,1294.12,143.73Zm1.43,8.24-1.48-2.63h-1V152h-.89v-6.45h2.19a2,2,0,0,1,2,1.93,1.79,1.79,0,0,1-1.38,1.78l1.55,2.74Zm-1.25-5.65h-1.21v2.26h1.21a1.13,1.13,0,1,0,0-2.26Z"/><path class="cls-2" d="M233,214.11a5.89,5.89,0,1,1,5.88-5.89A5.89,5.89,0,0,1,233,214.11Zm0-10.91a5,5,0,1,0,5,5A5,5,0,0,0,233,203.2Zm1.43,8.24-1.48-2.63h-1v2.63h-.89V205h2.19a2,2,0,0,1,2,1.93,1.79,1.79,0,0,1-1.38,1.78l1.55,2.74Zm-1.25-5.65H232v2.26h1.21a1.13,1.13,0,1,0,0-2.26Z"/><path class="cls-2" d="M220.54,140.41l-13.93,27.83c-.11-.21-8.69-17.56-10.63-21.53l-39,0,10.33-20.66,18.65.08-16.1-32.68-37.48,74.67-26.23,0,15-29.8c23.68-6.33,27.65-28.22,27.65-42.13a67.89,67.89,0,0,0-.86-11L158.09,65l23.61,0Z"/><path class="cls-2" d="M104.5,86.57c6.4,0,7,2.36,7,10.29s-.55,10.29-7,10.29H83.21L72.8,127.85l33.62-.5c27.4,0,29.6-18.9,29.6-31.14s-2.2-31.14-29.6-31.14H51.09L40.67,85.91l-.05,82.23H65.17V86.5Z"/><path class="cls-1" d="M46.15,204.57a112.08,112.08,0,1,1,158.55,0l9.44,9.44a125.43,125.43,0,1,0-177.43,0Z"/></g></g></svg>